<svg xmlns="http://www.w3.org/2000/svg" xmlns:xlink="http://www.w3.org/1999/xlink" viewBox="0 0 800 800"><defs><style>.cls-1{isolation:isolate;}.cls-2,.cls-20{fill:#f66;}.cls-18,.cls-3{fill:#fbc96b;}.cls-4{fill:#ef5b5b;}.cls-5{fill:#fff;}.cls-6{fill:#da4444;}.cls-14,.cls-16,.cls-28,.cls-29,.cls-7,.cls-8{opacity:0.33;mix-blend-mode:hard-light;}.cls-7{fill:url(#Gradient_bez_nazwy_6);}.cls-8{fill:url(#Gradient_bez_nazwy_6-2);}.cls-9{opacity:0.2;}.cls-21,.cls-9{mix-blend-mode:multiply;}.cls-10{fill:#4c37a8;}.cls-11{fill:#552283;}.cls-12{fill:#eb5259;}.cls-13{fill:#c5d7d8;}.cls-14{fill:url(#Gradient_bez_nazwy_6-3);}.cls-15{fill:#dda345;}.cls-16{fill:url(#Gradient_bez_nazwy_6-4);}.cls-17{mix-blend-mode:soft-light;fill:url(#Gradient_bez_nazwy_6-5);}.cls-18{opacity:0.5;}.cls-19{fill:#ea5d3f;mix-blend-mode:screen;}.cls-19,.cls-20{opacity:0.6;}.cls-21{fill:#d8bda7;opacity:0.32;}.cls-22{fill:#e49f98;}.cls-23{fill:#f8b7b0;}.cls-24{fill:#1c1e38;}.cls-25{fill:#f22f5d;}.cls-26{fill:#cc1d4f;}.cls-27{fill:#fcba6b;}.cls-28{fill:url(#Gradient_bez_nazwy_6-6);}.cls-29{fill:url(#Gradient_bez_nazwy_6-7);}</style><linearGradient id="Gradient_bez_nazwy_6" x1="555.53" y1="402.77" x2="555.53" y2="284.98" gradientUnits="userSpaceOnUse"><stop offset="0" stop-color="#4f2280"/><stop offset="1" stop-color="#d4145a"/></linearGradient><linearGradient id="Gradient_bez_nazwy_6-2" x1="555.53" y1="402.77" x2="555.53" y2="284.98" xlink:href="#Gradient_bez_nazwy_6"/><linearGradient id="Gradient_bez_nazwy_6-3" x1="706.45" y1="562.41" x2="706.45" y2="376.71" xlink:href="#Gradient_bez_nazwy_6"/><linearGradient id="Gradient_bez_nazwy_6-4" x1="511.54" y1="644.98" x2="599.51" y2="644.98" xlink:href="#Gradient_bez_nazwy_6"/><linearGradient id="Gradient_bez_nazwy_6-5" x1="459.6" y1="272.82" x2="651.45" y2="272.82" xlink:href="#Gradient_bez_nazwy_6"/><linearGradient id="Gradient_bez_nazwy_6-6" x1="293.78" y1="144.31" x2="293.78" y2="185.93" xlink:href="#Gradient_bez_nazwy_6"/><linearGradient id="Gradient_bez_nazwy_6-7" x1="293.78" y1="144.31" x2="293.78" y2="185.93" xlink:href="#Gradient_bez_nazwy_6"/></defs><title>about</title><g class="cls-1"><g id="Layer_1" data-name="Layer 1"><path class="cls-2" d="M76.74,120.09c19.48,19.81,48,27.78,74,13.36,19.9-11,31.85-31.7,34.17-53.36a513.51,513.51,0,0,1-56.37,24A536.66,536.66,0,0,1,76.74,120.09Z"/><path class="cls-2" d="M180.31,46.48c-.34-.89-.71-1.75-1.13-2.61-.66-1.5-1.42-3-2.21-4.41C159.3,7.67,118.14-2.07,85.49,16.05,58,31.34,48.74,59.58,57.07,87.09c.23.93.55,1.82.86,2.75a79.36,79.36,0,0,0,5.64,12.62,80.46,80.46,0,0,0,11,15.31,531.83,531.83,0,0,0,53-16.26,507.5,507.5,0,0,0,57.6-24.63A68.94,68.94,0,0,0,180.31,46.48Z"/><path class="cls-3" d="M226.66,45.35c-2.17-6-14.63-7.17-37-3.45q-5,.84-10.49,2c.42.85.79,1.72,1.13,2.61,3.38-.7,6.65-1.31,9.8-1.82q6.25-1,11.2-1.54c7.55-.75,13-.66,16.66,0S223.54,45,224,46.31c1.2,3.3-4.72,11.1-25,23-4.26,2.5-8.89,5-13.88,7.58a507.5,507.5,0,0,1-57.6,24.63,531.83,531.83,0,0,1-53,16.26c-8,2-15.6,3.55-22.52,4.72-23.2,3.86-32.72,1.67-33.93-1.66-1.94-5.39,13-17.34,39.83-31-.32-.92-.63-1.82-.86-2.75-26.32,13.29-44.54,26.52-41.59,34.7,1.75,4.87,10.24,6.55,25.26,5,3.55-.36,7.45-.89,11.73-1.59,7.45-1.25,15.6-3,24.27-5.15a536.66,536.66,0,0,0,51.77-16,513.51,513.51,0,0,0,56.37-24c5.61-2.8,10.82-5.62,15.56-8.4C218.64,61,227.56,52.6,227,46.64A5.11,5.11,0,0,0,226.66,45.35Z"/><path class="cls-4" d="M81.66,46.15c-3.52,1.52-7.1-.63-8.58-4.05S72.69,35,76.2,33.5a6.85,6.85,0,0,1,9.1,3.32A7.25,7.25,0,0,1,81.66,46.15Z"/><path class="cls-4" d="M70.21,52.78a3.52,3.52,0,0,1-4.56-2.16,3.3,3.3,0,0,1,1.66-4.57,3.65,3.65,0,0,1,4.84,1.77A3.85,3.85,0,0,1,70.21,52.78Z"/><path class="cls-4" d="M154.24,125.29a3.52,3.52,0,0,1-4.56-2.16,3.3,3.3,0,0,1,1.66-4.57,3.64,3.64,0,0,1,4.84,1.77A3.86,3.86,0,0,1,154.24,125.29Z"/><path class="cls-5" d="M481.5,111.28a6.17,6.17,0,0,0-3.12.87L457.8,91.58a6.17,6.17,0,0,0,.83-3.05,6.23,6.23,0,1,0-12.47,0,6.17,6.17,0,0,0,.83,3.05l-20.61,20.61a6.06,6.06,0,0,0-6.24-.07L399.61,91.58a6.16,6.16,0,0,0,.83-3.05,6.24,6.24,0,1,0-6.23,6.23,6.17,6.17,0,0,0,3.05-.83l20.53,20.54a6.17,6.17,0,0,0-.83,3.05,6.24,6.24,0,0,0,12.47,0,6.17,6.17,0,0,0-.76-2.92l20.67-20.67a6,6,0,0,0,6.11,0l20.6,20.6a6.17,6.17,0,0,0-.79,3,6.24,6.24,0,1,0,6.24-6.24Z"/><path class="cls-6" d="M699.44,236.92V709a14.16,14.16,0,0,1-14.16,14.16H425.77A14.16,14.16,0,0,1,411.61,709V236.92a14.2,14.2,0,0,1,14.16-14.2h259.5A14.2,14.2,0,0,1,699.44,236.92Z"/><path class="cls-3" d="M673.2,256.64V665.7a7.67,7.67,0,0,1-7.69,7.65h-220a7.67,7.67,0,0,1-7.69-7.65V256.64a7.67,7.67,0,0,1,7.69-7.65h220A7.67,7.67,0,0,1,673.2,256.64Z"/><path class="cls-2" d="M555.53,710.95h0a13.32,13.32,0,0,1-13.32-13.32h0a13.32,13.32,0,0,1,13.32-13.32h0a13.32,13.32,0,0,1,13.32,13.32h0A13.32,13.32,0,0,1,555.53,710.95Z"/><path class="cls-7" d="M673.2,256.64V381.4H437.85V256.64a7.67,7.67,0,0,1,7.69-7.65h220A7.67,7.67,0,0,1,673.2,256.64Z"/><circle class="cls-8" cx="555.53" cy="381.4" r="54.3"/><path class="cls-5" d="M564.31,383.23a13.12,13.12,0,0,0,4.38-9.79V367c0-7.21-5.56-13.5-12.76-13.71a13.17,13.17,0,0,0-13.57,13.16v7a13.12,13.12,0,0,0,4.38,9.79,27.82,27.82,0,0,0-18.09,19.35,5.66,5.66,0,0,0,5.56,7h42.64a5.66,5.66,0,0,0,5.56-7A27.82,27.82,0,0,0,564.31,383.23Z"/><path class="cls-9" d="M699.44,435.22V580.91a74.41,74.41,0,0,1-10.38.74,73.59,73.59,0,0,1,0-147.17c.83,0,1.65,0,2.48.09A78.64,78.64,0,0,1,699.44,435.22Z"/><path class="cls-10" d="M768.38,530.38a73.53,73.53,0,0,0-32.86-107.29l-29.07,67.59Z"/><path class="cls-11" d="M730.08,560.35l-23.63-69.66,2.44-73.5c-.82,0-1.62-.08-2.44-.08a73.58,73.58,0,1,0,0,147.16A72.65,72.65,0,0,0,730.08,560.35Z"/><path class="cls-12" d="M730.08,560.35a73.27,73.27,0,0,0,38.3-30l-61.93-39.7Z"/><path class="cls-13" d="M735.52,423.09a71.87,71.87,0,0,0-26.62-5.91l-2.44,73.5Z"/><path class="cls-14" d="M735.52,423.09a71.88,71.88,0,0,0-26.62-5.91c-.82,0-1.62-.07-2.44-.07a73.58,73.58,0,1,0,0,147.16A73.64,73.64,0,0,0,780,490.68,73.52,73.52,0,0,0,735.52,423.09Z"/><path class="cls-5" d="M555.53,450.2a4.34,4.34,0,0,1-3.08-1.3,4.2,4.2,0,0,1-1.26-3,3.91,3.91,0,0,1,.35-1.69,4.28,4.28,0,0,1,.91-1.39,3.49,3.49,0,0,1,.65-.52,6.58,6.58,0,0,1,.78-.43,5.36,5.36,0,0,1,.78-.22,3.8,3.8,0,0,1,1.69,0,4.7,4.7,0,0,1,.83.22,4,4,0,0,1,.74.43,2.72,2.72,0,0,1,.7.52,4.28,4.28,0,0,1,.91,1.39,4.56,4.56,0,0,1,.35,1.69,4.22,4.22,0,0,1-1.26,3A4.36,4.36,0,0,1,555.53,450.2Z"/><path class="cls-5" d="M551.18,479.14a4.36,4.36,0,0,1,4.34-4.34h0a4.36,4.36,0,0,1,4.34,4.34h0a4.36,4.36,0,0,1-4.34,4.34h0A4.36,4.36,0,0,1,551.18,479.14Zm0-16.64a4.36,4.36,0,0,1,4.34-4.34h0a4.36,4.36,0,0,1,4.34,4.34h0a4.36,4.36,0,0,1-4.34,4.34h0A4.36,4.36,0,0,1,551.18,462.5Z"/><path class="cls-5" d="M555.53,500.16a4.34,4.34,0,0,1-3.08-1.3,5.34,5.34,0,0,1-1-1.39,4.3,4.3,0,0,1-.3-1.65,4.46,4.46,0,0,1,1.26-3.08,7.6,7.6,0,0,1,.65-.56l.78-.39a5.36,5.36,0,0,1,.78-.22,3.8,3.8,0,0,1,1.69,0,4.7,4.7,0,0,1,.83.22c.26.13.52.26.74.39a4.48,4.48,0,0,1,.7.56,4.28,4.28,0,0,1,.91,1.39,4.73,4.73,0,0,1,.35,1.69,4.29,4.29,0,0,1-1.26,3A4.36,4.36,0,0,1,555.53,500.16Z"/><path class="cls-5" d="M598.4,495.81a4.33,4.33,0,0,1,4.34-4.34h0a4.3,4.3,0,0,1,4.34,4.34h0a4.33,4.33,0,0,1-4.34,4.34h0A4.35,4.35,0,0,1,598.4,495.81Zm-15.73,0a4.33,4.33,0,0,1,4.34-4.34h0a4.33,4.33,0,0,1,4.34,4.34h0a4.36,4.36,0,0,1-4.34,4.34h0A4.36,4.36,0,0,1,582.68,495.81Zm-15.73,0a4.29,4.29,0,0,1,4.3-4.34h0a4.34,4.34,0,0,1,4.39,4.34h0a4.37,4.37,0,0,1-4.39,4.34h0A4.32,4.32,0,0,1,567,495.81Z"/><path class="cls-5" d="M618.51,500.16a4.34,4.34,0,0,1-3.08-1.3,4.2,4.2,0,0,1-1.26-3,4.46,4.46,0,0,1,1.26-3.08,4.55,4.55,0,0,1,6.17,0,4.48,4.48,0,0,1,1.26,3.08,4.22,4.22,0,0,1-1.26,3A4.36,4.36,0,0,1,618.51,500.16Z"/><rect class="cls-15" x="459.24" y="526.04" width="144.8" height="8.69"/><rect class="cls-15" x="459.24" y="552.27" width="144.8" height="8.69"/><rect class="cls-15" x="459.24" y="577.31" width="55.02" height="8.69"/><path class="cls-16" d="M511.54,667a44,44,0,0,1,88,0"/><rect class="cls-17" x="459.6" y="268.47" width="191.85" height="8.69"/><path class="cls-5" d="M732.93,385a4.3,4.3,0,0,1,4.34-4.34h0a4.33,4.33,0,0,1,4.34,4.34h0a4.36,4.36,0,0,1-4.34,4.34h0A4.33,4.33,0,0,1,732.93,385Zm0-17.38a4.3,4.3,0,0,1,4.34-4.34h0a4.33,4.33,0,0,1,4.34,4.34h0a4.36,4.36,0,0,1-4.34,4.34h0A4.33,4.33,0,0,1,732.93,367.67Zm0-17.38a4.3,4.3,0,0,1,4.34-4.34h0a4.33,4.33,0,0,1,4.34,4.34h0a4.36,4.36,0,0,1-4.34,4.34h0A4.33,4.33,0,0,1,732.93,350.29Zm0-17.38a4.3,4.3,0,0,1,4.34-4.34h0a4.33,4.33,0,0,1,4.34,4.34h0a4.36,4.36,0,0,1-4.34,4.34h0A4.33,4.33,0,0,1,732.93,332.92Zm0-17.38a4.3,4.3,0,0,1,4.34-4.34h0a4.33,4.33,0,0,1,4.34,4.34h0a4.36,4.36,0,0,1-4.34,4.34h0A4.33,4.33,0,0,1,732.93,315.54Zm0-17.38a4.3,4.3,0,0,1,4.34-4.34h0a4.33,4.33,0,0,1,4.34,4.34h0a4.36,4.36,0,0,1-4.34,4.34h0A4.33,4.33,0,0,1,732.93,298.17Zm0-17.38a4.3,4.3,0,0,1,4.34-4.34h0a4.33,4.33,0,0,1,4.34,4.34h0a4.36,4.36,0,0,1-4.34,4.34h0A4.33,4.33,0,0,1,732.93,280.79Zm0-17.38a4.3,4.3,0,0,1,4.34-4.34h0a4.33,4.33,0,0,1,4.34,4.34h0a4.36,4.36,0,0,1-4.34,4.34h0A4.33,4.33,0,0,1,732.93,263.42Zm0-17.38a4.3,4.3,0,0,1,4.34-4.34h0a4.33,4.33,0,0,1,4.34,4.34h0a4.36,4.36,0,0,1-4.34,4.34h0A4.33,4.33,0,0,1,732.93,246Zm0-17.38a4.3,4.3,0,0,1,4.34-4.34h0a4.33,4.33,0,0,1,4.34,4.34h0a4.36,4.36,0,0,1-4.34,4.34h0A4.33,4.33,0,0,1,732.93,228.67Zm0-17.38a4.3,4.3,0,0,1,4.34-4.34h0a4.33,4.33,0,0,1,4.34,4.34h0a4.36,4.36,0,0,1-4.34,4.34h0A4.33,4.33,0,0,1,732.93,211.29Zm0-17.38a4.3,4.3,0,0,1,4.34-4.34h0a4.33,4.33,0,0,1,4.34,4.34h0a4.36,4.36,0,0,1-4.34,4.34h0A4.33,4.33,0,0,1,732.93,193.91Zm0-17.38a4.3,4.3,0,0,1,4.34-4.34h0a4.33,4.33,0,0,1,4.34,4.34h0a4.36,4.36,0,0,1-4.34,4.34h0A4.33,4.33,0,0,1,732.93,176.54Zm-4.34-13a4.3,4.3,0,0,1,4.34-4.34h0a4.33,4.33,0,0,1,4.34,4.34h0a4.36,4.36,0,0,1-4.34,4.34h0A4.33,4.33,0,0,1,728.59,163.51Zm-17.38,0a4.3,4.3,0,0,1,4.34-4.34h0a4.33,4.33,0,0,1,4.34,4.34h0a4.36,4.36,0,0,1-4.34,4.34h0A4.33,4.33,0,0,1,711.21,163.51Zm-17.38,0a4.3,4.3,0,0,1,4.34-4.34h0a4.33,4.33,0,0,1,4.34,4.34h0a4.36,4.36,0,0,1-4.34,4.34h0A4.33,4.33,0,0,1,693.84,163.51Zm-17.38,0a4.3,4.3,0,0,1,4.34-4.34h0a4.33,4.33,0,0,1,4.34,4.34h0a4.36,4.36,0,0,1-4.34,4.34h0A4.33,4.33,0,0,1,676.46,163.51Zm-17.38,0a4.3,4.3,0,0,1,4.34-4.34h0a4.33,4.33,0,0,1,4.34,4.34h0a4.36,4.36,0,0,1-4.34,4.34h0A4.33,4.33,0,0,1,659.08,163.51Zm-17.38,0a4.3,4.3,0,0,1,4.34-4.34h0a4.33,4.33,0,0,1,4.34,4.34h0a4.36,4.36,0,0,1-4.34,4.34h0A4.33,4.33,0,0,1,641.71,163.51Zm-17.38,0a4.33,4.33,0,0,1,4.34-4.34h0a4.33,4.33,0,0,1,4.34,4.34h0a4.36,4.36,0,0,1-4.34,4.34h0A4.36,4.36,0,0,1,624.33,163.51Zm-17.38,0a4.3,4.3,0,0,1,4.34-4.34h0a4.33,4.33,0,0,1,4.34,4.34h0a4.36,4.36,0,0,1-4.34,4.34h0A4.33,4.33,0,0,1,607,163.51Zm-17.38,0a4.3,4.3,0,0,1,4.34-4.34h0a4.33,4.33,0,0,1,4.34,4.34h0a4.36,4.36,0,0,1-4.34,4.34h0A4.33,4.33,0,0,1,589.58,163.51Zm-17.38,0a4.3,4.3,0,0,1,4.34-4.34h0a4.33,4.33,0,0,1,4.34,4.34h0a4.36,4.36,0,0,1-4.34,4.34h0A4.33,4.33,0,0,1,572.21,163.51Zm-17.38,0a4.3,4.3,0,0,1,4.34-4.34h0a4.33,4.33,0,0,1,4.34,4.34h0a4.36,4.36,0,0,1-4.34,4.34h0A4.33,4.33,0,0,1,554.83,163.51Zm-17.38,0a4.3,4.3,0,0,1,4.34-4.34h0a4.33,4.33,0,0,1,4.34,4.34h0a4.36,4.36,0,0,1-4.34,4.34h0A4.33,4.33,0,0,1,537.46,163.51Zm-17.38,0a4.3,4.3,0,0,1,4.34-4.34h0a4.33,4.33,0,0,1,4.34,4.34h0a4.36,4.36,0,0,1-4.34,4.34h0A4.33,4.33,0,0,1,520.08,163.51Zm-17.38,0a4.3,4.3,0,0,1,4.34-4.34h0a4.33,4.33,0,0,1,4.34,4.34h0a4.36,4.36,0,0,1-4.34,4.34h0A4.33,4.33,0,0,1,502.7,163.51Zm-17.38,0a4.3,4.3,0,0,1,4.34-4.34h0a4.33,4.33,0,0,1,4.34,4.34h0a4.36,4.36,0,0,1-4.34,4.34h0A4.33,4.33,0,0,1,485.33,163.51Z"/><path class="cls-18" d="M460.35,110.66V519.73a7.67,7.67,0,0,1-7.69,7.65h-220a7.67,7.67,0,0,1-7.69-7.65V110.66a7.67,7.67,0,0,1,7.69-7.65h220A7.67,7.67,0,0,1,460.35,110.66Z"/><rect class="cls-19" x="243.88" y="121.9" width="99.81" height="99.81"/><rect class="cls-20" x="301.05" y="227.29" width="42.64" height="42.64"/><ellipse class="cls-21" cx="287.99" cy="784.08" rx="112.97" ry="13.92"/><path class="cls-22" d="M468.84,340.4c.83-.21,1.36.28.19,1.09-2.44,1.7-6,6.58-7.43,8.34-2.09,2.58-5.49,8.2-9.8,11.2s-24,11.64-27.16,12c-2.95.37-8.42-.27-1.73-12.72,3.52-6.54,5.61-7.69,9.7-9.28,3.55-1.38,11.82-5.32,13.06-4.91s.46,2.26-8.16,7.4c-1.36,1.58,6,3.76,8.75,3.23s4.51-10,6.28-11.72c1.53-1.45,3-1.68,3.87-1.35s-1,2.9-2.29,5.91-.46,4.76-.46,4.76,7-9.18,9.74-11.2C465.88,341.35,466.07,341.09,468.84,340.4Z"/><path class="cls-23" d="M410.87,380.9a119.48,119.48,0,0,0,9.85-14.48c1.89-3.32,11.7-7.66,18.6-6.49,0,0,3.63-12,5.82-13.21s3.95-.57,2.69,1.81-3.23,9.26-3.23,9.26,5.4,2.16,6.18-2.57,4.77-11.27,7.68-12,3.15.22.77,3.08-3.4,7.89-2.82,9.38-4.91,6-9.57,8.77-17.29,8.43-20.88,12.22-22.55,30.17-22.55,30.17l-13.64-6.71Z"/><path class="cls-23" d="M293.18,328.77c18,2.4,29.42-7.61,33-12.21s-8-9.21-12.21-13.81c-1.79-2-2.53-5.16-2.58-9.22-.08-5.49,1.08-12.59,2.58-20.4l-36.23-6.4s1.2,18.21,1.2,25a10.25,10.25,0,0,1-.44,3.17c-1.32,4.24-5.66,6.05-12.57,11.64C257.56,313.36,275.17,326.37,293.18,328.77Z"/><path class="cls-24" d="M271.57,255.42c-3.11-.3-5,.33-6-13.91-.43-6.11-.4-11.41,5.55-17.69,0,0,7.64-1.66,8.53,8.17S278.18,253.6,271.57,255.42Z"/><path class="cls-22" d="M279,291.74a10.7,10.7,0,0,1-.06,1.27c4,3.75,8.66,6.58,12.42,6.58,5.84,0,13-2.91,20.16-9.05A137.71,137.71,0,0,1,314,273.13l-36.23-6.41S279,284.93,279,291.74Z"/><path class="cls-23" d="M320.67,255.63c-1.56,15.58-2.6,23.13-9.41,29.51s-13.81,9.41-19.41,9.41c-7,0-17.41-11.06-19.21-17.65-1.87-6.83-4.44-24.41-2.2-41.47,1.13-8.65,11.81-19.14,22.82-19.14S324.47,217.56,320.67,255.63Z"/><ellipse class="cls-23" cx="272.64" cy="258.59" rx="5.52" ry="10.54" transform="translate(-49.71 65.49) rotate(-12.56)"/><path class="cls-24" d="M321.54,227.7s-12.56,6.93-32.69,4.08c-18.89-2.68-18.88-7.28-18.88-7.28s3.27-12.61,16.28-13.41S317.86,211.08,321.54,227.7Z"/><path class="cls-24" d="M318.47,255.42c-3.11-.3-5,.33-6-13.91-.43-6.11-.4-11.41,5.55-17.69,0,0,7.64-1.66,8.53,8.17S325.07,253.6,318.47,255.42Z"/><path class="cls-25" d="M376.13,396.17l36.69-18.53,3.26,23.1-53,28.08-23.22-52s-.38,77.69-1.4,88.48c-1,10.53-3.54,11.6-8.07,11.6H257c-5,0-8.6-5.38-7.74-14.94.69-7.74,5.62-71,3.53-99.26,0,0-3.63,24.3-5.87,51.1l45.91,40.41-6.26,18.29L221.35,428s.61-90.44,20-108.48c7.47-6.94,25.71-19.48,33.71-21.08l20.25,11.69,1.73,4.59,1-4.72,13-9.73c12,2,29.35,14.06,31.89,19C348.94,330.8,376.13,396.17,376.13,396.17Z"/><ellipse class="cls-23" cx="321.14" cy="257.18" rx="10.54" ry="5.52" transform="translate(-38.39 457.21) rotate(-67.78)"/><path class="cls-26" d="M276.77,293s-4.14,2.41-5.22,8.59c0,0,4.91,9.91,16.22,20.35,0,0,2.86-9.92,7.58-11.79Z"/><path class="cls-26" d="M313.61,292.44a23.1,23.1,0,0,1,1.55,10.26s-5,12-13.9,19.12c0,0,1.16-7.23-3.15-11.8Z"/><path class="cls-26" d="M252.12,418.36c-.56,11.07-1.24,21.46-1.8,29.41l-10.29-7c2.32-8.25,7.06-20.45,8.94-25.17Z"/><path class="cls-10" d="M242.61,759.58c1.41,5.23,3.88,9.11,2.16,12.11s-.57,5,1.34,9.21,7.89,12.5-7.9,12.81c-16.9.33-25.39-4-22.52-13.21s2.51-12.21,2.31-15.21.65-6.12,2.56-7.93S240.12,750.37,242.61,759.58Z"/><path class="cls-10" d="M337.68,753.67c1.42,3.22,8.81,11,19.41,16.49s32.82,10.33,19.61,13.53-22,2.8-42-3.8c-8.41-2.4-7.61-2.8-16.61-2.4s-15.61,2.8-11.41-14.61S333.08,743.27,337.68,753.67Z"/><path class="cls-27" d="M249.26,469.21s0-3.71,3.25-4.14,8.11-1.53,44.27-1.53,42,.87,42,3.34c0,0,3.71,122.65,2.78,143.14s-3.71,122.07-2.78,131.23a102.1,102.1,0,0,0,2.93,16.13l-13.13-3.49S308.29,765.52,306,769.44s-.33-8.7-1.55-21.65c-1.24-13.22,1.85-120.24,2.32-135.1s-8.81-93.56-8.81-93.56h-6.49s-18.77,62.13-21.56,78.69-5.38,27.54-7.49,36.19c-3.07,12.55-15.6,107-17,115.67a67,67,0,0,0,0,17.91L237.78,760s-17.68,1.72-20.46,8.12c0,0,8.31-134.57,12.94-152.88S249.26,469.21,249.26,469.21Z"/><path class="cls-22" d="M282.77,266.8c.26,2.29,2.59,4.08,5.44,4.08a5.57,5.57,0,0,0,5-2.71,8,8,0,0,1-4.5,1.34A7.46,7.46,0,0,1,282.77,266.8Z"/><path class="cls-26" d="M416.34,372.62s3.72,21.46,3.37,29.12l-13.82,7.9,1.46-32.14Z"/><path class="cls-28" d="M316.61,163.65c0,12.61-22.83,39.14-22.83,39.14S271,176.25,271,163.65a22.83,22.83,0,0,1,45.66,0Z"/><circle class="cls-29" cx="293.78" cy="163.93" r="9.68"/><path class="cls-3" d="M214.92,446.34A45.63,45.63,0,1,1,233,384.4,45.68,45.68,0,0,1,214.92,446.34Zm-39.46-72A36.5,36.5,0,1,0,225,388.78,36.54,36.54,0,0,0,175.46,374.31Z"/><path class="cls-3" d="M212.53,400.82l-17.34,9.5a4.56,4.56,0,0,1-6.19-1.81l-13.88-25.34a4.56,4.56,0,1,1,8-4.38l11.69,21.34,13.34-7.31a4.56,4.56,0,1,1,4.38,8Z"/></g></g></svg>