<svg xmlns="http://www.w3.org/2000/svg" xmlns:xlink="http://www.w3.org/1999/xlink" viewBox="0 0 791.15 475.22"><defs><style>.cls-1{fill:none;}.cls-2{fill:#4c8aa5;}.cls-3,.cls-8{fill:#2a566f;}.cls-12,.cls-4,.cls-9{fill:#fff;}.cls-5{fill:#f89d18;}.cls-6{fill:#ffbf0f;}.cls-7{fill:#cde8d9;}.cls-8{opacity:0.55;}.cls-9{font-size:42.99px;font-family:Bebas, Bebas;}.cls-10{letter-spacing:-0.09em;}.cls-11,.cls-12{font-size:76.28px;font-family:MyriadPro-Regular, Myriad Pro;}.cls-11{fill:#0e303f;}.cls-13{fill:#fdfdfe;}.cls-14{fill:#005f7d;}.cls-15{fill:#2da191;}.cls-16{clip-path:url(#clip-path);}</style><clipPath id="clip-path"><rect class="cls-1" x="661.41" y="91.12" width="86.46" height="141.19"/></clipPath></defs><title>Asset 1</title><g id="Layer_2" data-name="Layer 2"><g id="Obejcts"><path class="cls-2" d="M395.57,163.21q-33.31-.88-58,3.6-25.52,4.65-42.83,11.28t-27.13,13.46A128.48,128.48,0,0,0,254,202q-1.62,1.53-2.53,2.59t-1.12,1.25a27.06,27.06,0,0,0-4,7.28,20.87,20.87,0,0,0-1.49,7.94l-1.57,52.14A12.72,12.72,0,0,0,248.09,284q4.64,3.27,11.37,1.87l60.82-14,.2-.19a14.55,14.55,0,0,0,6.6-4,17.05,17.05,0,0,0,5.41-11.28l.4-22.63a4.62,4.62,0,0,1,.64-2,6.66,6.66,0,0,1,1-1.55l3-1.89a43.42,43.42,0,0,1,10-4,128.56,128.56,0,0,1,19-3.64,181.85,181.85,0,0,1,29-.92Z"/><path class="cls-3" d="M395.57,163.21q33.31-.88,58,3.6,25.52,4.65,42.83,11.28t27.13,13.46A128.48,128.48,0,0,1,537.17,202q1.62,1.53,2.53,2.59t1.12,1.25a27.06,27.06,0,0,1,4,7.28,20.87,20.87,0,0,1,1.49,7.94l1.57,52.14A12.72,12.72,0,0,1,543.06,284q-4.64,3.27-11.37,1.87l-60.82-14-.2-.19a14.55,14.55,0,0,1-6.6-4,17.05,17.05,0,0,1-5.41-11.28l-.4-22.63a4.62,4.62,0,0,0-.64-2,6.65,6.65,0,0,0-1-1.55l-3-1.89a43.42,43.42,0,0,0-10-4,128.56,128.56,0,0,0-19-3.64,181.85,181.85,0,0,0-29-.92Z"/><rect class="cls-4" x="257.78" y="362.96" width="275.25" height="10.3" rx="3.18" ry="3.18"/><path class="cls-2" d="M395.57,280.33V363H270.06V331.62S350.6,298.14,359,280.33Z"/><path class="cls-3" d="M395.57,280.33V363H521.09V331.62s-80.54-33.48-88.91-51.29Z"/><rect class="cls-2" x="241" y="373.26" width="154.57" height="79.71"/><rect class="cls-3" x="395.57" y="373.26" width="154.57" height="79.71" transform="translate(945.72 826.24) rotate(180)"/><circle class="cls-4" cx="395.99" cy="364.4" r="62.91"/><circle class="cls-2" cx="395.99" cy="316.43" r="6.46"/><circle class="cls-2" cx="372.01" cy="322.86" r="6.46" transform="matrix(0.87, -0.5, 0.5, 0.87, -111.59, 229.26)"/><circle class="cls-2" cx="354.45" cy="340.42" r="6.46" transform="translate(-117.58 477.17) rotate(-60)"/><circle class="cls-2" cx="348.02" cy="364.4" r="6.46"/><circle class="cls-2" cx="354.45" cy="388.38" r="6.46" transform="translate(-146.7 229.26) rotate(-30)"/><circle class="cls-2" cx="372.01" cy="405.94" r="6.46" transform="translate(-165.55 525.14) rotate(-60)"/><circle class="cls-3" cx="395.99" cy="412.37" r="6.46"/><circle class="cls-3" cx="419.97" cy="405.94" r="6.46" transform="translate(-146.7 264.37) rotate(-30)"/><circle class="cls-3" cx="437.53" cy="388.38" r="6.46" transform="translate(-117.58 573.1) rotate(-60)"/><circle class="cls-3" cx="443.96" cy="364.4" r="6.46"/><circle class="cls-3" cx="437.53" cy="340.42" r="6.46" transform="translate(-111.59 264.37) rotate(-30)"/><circle class="cls-3" cx="419.97" cy="322.86" r="6.46" transform="translate(-69.62 525.14) rotate(-60)"/><rect class="cls-4" x="361.7" y="233.23" width="11.63" height="54.66" rx="3.59" ry="3.59"/><rect class="cls-4" x="417.82" y="233.23" width="11.63" height="54.66" rx="3.59" ry="3.59"/><polygon class="cls-5" points="7.03 398.54 22.01 436.88 36.99 475.22 100.88 406.07 7.03 398.54"/><polygon class="cls-5" points="164.77 336.92 179.75 375.26 194.72 413.6 100.88 406.07 164.77 336.92"/><path class="cls-6" d="M100.88,406.07,37,475.22l78.87-30.81,78.87-30.81Z"/><polygon class="cls-6" points="7.03 398.54 62.03 306.63 164.77 336.92 100.88 406.07 7.03 398.54"/><polygon class="cls-4" points="20.33 399.61 100.88 406.07 67.69 321.13 0 347.57 20.33 399.61"/><polygon class="cls-7" points="155.72 346.72 100.88 406.07 67.69 321.13 135.39 294.68 155.72 346.72"/><path class="cls-8" d="M131.89,315.25,15.54,360.71a2.1,2.1,0,0,1-2.71-1.19h0A2.1,2.1,0,0,1,14,356.81l116.35-45.46a2.1,2.1,0,0,1,2.71,1.19h0A2.1,2.1,0,0,1,131.89,315.25Z"/><path class="cls-8" d="M137.6,329.86,21.25,375.31a2.1,2.1,0,0,1-2.71-1.19h0a2.1,2.1,0,0,1,1.19-2.71L136.08,326a2.1,2.1,0,0,1,2.71,1.19h0A2.1,2.1,0,0,1,137.6,329.86Z"/><path class="cls-8" d="M143.3,344.46,27,389.92a2.1,2.1,0,0,1-2.71-1.19h0A2.1,2.1,0,0,1,25.43,386l116.35-45.46a2.1,2.1,0,0,1,2.71,1.19h0A2.1,2.1,0,0,1,143.3,344.46Z"/><path class="cls-5" d="M664.53,311l123.84,35.18a3.83,3.83,0,0,1,2.63,4.71l-22.59,79.54a3.83,3.83,0,0,1-4.71,2.63L676,408.18c-11.11,8.05-27.76,19.5-27.76,19.5l10.53-24.39-18.93-5.38a3.83,3.83,0,0,1-2.63-4.71l22.59-79.54A3.83,3.83,0,0,1,664.53,311Z"/><path class="cls-6" d="M745.1,302.67,621.26,267.49a3.83,3.83,0,0,0-4.71,2.63L594,349.66a3.83,3.83,0,0,0,2.63,4.71l87.69,24.91c5.21,12.69,13.36,31.18,13.36,31.18l3.86-26.28,18.93,5.38a3.83,3.83,0,0,0,4.71-2.63l22.59-79.54A3.83,3.83,0,0,0,745.1,302.67Z"/><text class="cls-9" transform="translate(624.46 335.77) rotate(15.86)"><tspan class="cls-10">2</tspan><tspan x="19.08" y="0">4/7</tspan></text><circle class="cls-3" cx="247.26" cy="69.05" r="59.22"/><text class="cls-11" transform="translate(219.15 91.44)">@</text><text class="cls-12" transform="translate(219.15 88.83)">@</text><circle class="cls-3" cx="534.2" cy="64.14" r="64.14"/><circle class="cls-13" cx="534.2" cy="64.14" r="54.46"/><path class="cls-14" d="M534.2,22h0a1.46,1.46,0,0,0,1.45-1.45v-6a1.46,1.46,0,0,0-1.45-1.45h0a1.46,1.46,0,0,0-1.45,1.45v6A1.46,1.46,0,0,0,534.2,22Z"/><path class="cls-14" d="M561.28,31.86h0a1.46,1.46,0,0,0,2-.18l3.84-4.57a1.46,1.46,0,0,0-.18-2h0a1.46,1.46,0,0,0-2,.18l-3.84,4.57A1.46,1.46,0,0,0,561.28,31.86Z"/><path class="cls-14" d="M575.69,56.82h0A1.46,1.46,0,0,0,577.37,58l5.88-1a1.46,1.46,0,0,0,1.18-1.68h0a1.46,1.46,0,0,0-1.68-1.18l-5.88,1A1.46,1.46,0,0,0,575.69,56.82Z"/><path class="cls-14" d="M570.69,85.2h0a1.46,1.46,0,0,0,.53,2l5.17,3a1.46,1.46,0,0,0,2-.53h0a1.46,1.46,0,0,0-.53-2l-5.17-3A1.46,1.46,0,0,0,570.69,85.2Z"/><path class="cls-14" d="M548.61,103.73h0a1.46,1.46,0,0,0-.87,1.86l2,5.61a1.46,1.46,0,0,0,1.86.87h0a1.46,1.46,0,0,0,.87-1.86l-2-5.61A1.46,1.46,0,0,0,548.61,103.73Z"/><path class="cls-14" d="M519.79,103.73h0a1.46,1.46,0,0,0-1.86.87l-2,5.61a1.46,1.46,0,0,0,.87,1.86h0a1.46,1.46,0,0,0,1.86-.87l2-5.61A1.46,1.46,0,0,0,519.79,103.73Z"/><path class="cls-14" d="M497.72,85.2h0a1.46,1.46,0,0,0-2-.53l-5.17,3a1.46,1.46,0,0,0-.53,2h0a1.46,1.46,0,0,0,2,.53l5.17-3A1.46,1.46,0,0,0,497.72,85.2Z"/><path class="cls-14" d="M492.71,56.82h0a1.46,1.46,0,0,0-1.18-1.68l-5.88-1A1.46,1.46,0,0,0,484,55.28h0A1.46,1.46,0,0,0,485.15,57L491,58A1.46,1.46,0,0,0,492.71,56.82Z"/><path class="cls-14" d="M507.12,31.86h0a1.46,1.46,0,0,0,.18-2l-3.84-4.57a1.46,1.46,0,0,0-2-.18h0a1.46,1.46,0,0,0-.18,2l3.84,4.57A1.46,1.46,0,0,0,507.12,31.86Z"/><path class="cls-5" d="M509.77,91.28h0a1.83,1.83,0,0,0,2.58-.12L535.18,66.1a1.83,1.83,0,0,0-.12-2.58h0a1.83,1.83,0,0,0-2.58.12L509.65,88.69A1.83,1.83,0,0,0,509.77,91.28Z"/><rect class="cls-15" x="495.57" y="63.63" width="38.63" height="1.01" transform="translate(1029.78 128.27) rotate(180)"/><circle class="cls-5" cx="534.2" cy="64.14" r="4.44"/><rect class="cls-5" x="531.03" y="32.71" width="6.34" height="30.93" rx="1.92" ry="1.92" transform="translate(1068.4 96.35) rotate(180)"/><path class="cls-6" d="M105.66,103.51a66.87,66.87,0,0,0,0,133.75Z"/><path class="cls-5" d="M105.66,103.51a66.87,66.87,0,0,1,0,133.75Z"/><path class="cls-4" d="M105.66,118.37a26.48,26.48,0,0,0-6.54.79,14.51,14.51,0,0,0-8.54,5.78,16.68,16.68,0,0,0-2.63,8.72c0,3.28,0,6.58,0,9.87.08.66-.48,1.1-.74,1.65a6.82,6.82,0,0,0,1.56,8.34,3.23,3.23,0,0,1,.94,1.84,26.61,26.61,0,0,0,5,8.88v3.66a11,11,0,0,1-11,11h-5.5s-10,2.75-16.51,16.51v5.5a5.5,5.5,0,0,0,5.5,5.5h38.53Z"/><path class="cls-7" d="M105.66,118.37a26.48,26.48,0,0,1,6.54.79,14.51,14.51,0,0,1,8.54,5.78,16.68,16.68,0,0,1,2.63,8.72c0,3.28,0,6.58,0,9.87-.08.66.48,1.1.74,1.65a6.82,6.82,0,0,1-1.56,8.34,3.23,3.23,0,0,0-.94,1.84,26.61,26.61,0,0,1-5,8.88v3.66a11,11,0,0,0,11,11h5.5s10,2.75,16.51,16.51v5.5a5.5,5.5,0,0,1-5.5,5.5H105.66Z"/><path class="cls-6" d="M661.41,111.78a60.26,60.26,0,0,0,0,120.53Z"/><path class="cls-5" d="M661.41,111.78a60.26,60.26,0,1,1,0,120.53Z"/><path class="cls-4" d="M661.41,128.27a42.16,42.16,0,0,0,0,84.33,2.6,2.6,0,1,0,0-5.19,37,37,0,1,1,37-37c0,8.52-4.53,17-11,20.55a16,16,0,0,1-7.64,2,12.15,12.15,0,0,0,4.11-3.94,5.91,5.91,0,0,0,.62-.93c.85-2,.92-4.35,1.43-6.49.63-2.75-12-8.12-13.12-4.69-.39,1.27-1,5.3-1.8,6.35s-2.46.49-3.56-.44c-2.89-2.46-6.1-6.06-8.93-8.93l-.24-.24c-.07-.07-.16-.15-.24-.24h0c-2.85-2.82-6.47-6-8.93-8.94-.93-1.1-1.37-2.84-.43-3.55s5.07-1.4,6.34-1.79c3.43-1.1-1.94-13.77-4.69-13.13-2.14.5-4.46.58-6.49,1.42a6,6,0,0,0-.93.63c-7.22,4.58-8.15,15.7-1.09,24q4,4.74,8.37,9.23h0l.24.23.23.24h0c3,2.88,6.54,7.13,12.3,11,12.15,8.11,21.47,5.84,27,2.82,9.48-5.22,13.71-16.36,13.71-25.08a42.22,42.22,0,0,0-42.17-42.18Zm0,0"/><g class="cls-16"><path class="cls-7" d="M661.41,128.27a42.16,42.16,0,0,0,0,84.33,2.6,2.6,0,1,0,0-5.19,37,37,0,1,1,37-37c0,8.52-4.53,17-11,20.55a16,16,0,0,1-7.64,2,12.15,12.15,0,0,0,4.11-3.94,5.91,5.91,0,0,0,.62-.93c.85-2,.92-4.35,1.43-6.49.63-2.75-12-8.12-13.12-4.69-.39,1.27-1,5.3-1.8,6.35s-2.46.49-3.56-.44c-2.89-2.46-6.1-6.06-8.93-8.93l-.24-.24c-.07-.07-.16-.15-.24-.24h0c-2.85-2.82-6.47-6-8.93-8.94-.93-1.1-1.37-2.84-.43-3.55s5.07-1.4,6.34-1.79c3.43-1.1-1.94-13.77-4.69-13.13-2.14.5-4.46.58-6.49,1.42a6,6,0,0,0-.93.63c-7.22,4.58-8.15,15.7-1.09,24q4,4.74,8.37,9.23h0l.24.23.23.24h0c3,2.88,6.54,7.13,12.3,11,12.15,8.11,21.47,5.84,27,2.82,9.48-5.22,13.71-16.36,13.71-25.08a42.22,42.22,0,0,0-42.17-42.18Zm0,0"/></g></g></g></svg>