<svg xmlns="http://www.w3.org/2000/svg" xmlns:xlink="http://www.w3.org/1999/xlink" viewBox="0 0 1366 768"><defs><style>.cls-1,.cls-10,.cls-11,.cls-12,.cls-13,.cls-14,.cls-15,.cls-16,.cls-17,.cls-18,.cls-19,.cls-20,.cls-21,.cls-22,.cls-23,.cls-24,.cls-25,.cls-26,.cls-27,.cls-28,.cls-29,.cls-30,.cls-31,.cls-32,.cls-33,.cls-34,.cls-35,.cls-36,.cls-37,.cls-38,.cls-39,.cls-40,.cls-41,.cls-42,.cls-43,.cls-44,.cls-45,.cls-46,.cls-47,.cls-48,.cls-49,.cls-50,.cls-51,.cls-52,.cls-53,.cls-54,.cls-55,.cls-56,.cls-57,.cls-58,.cls-59,.cls-60,.cls-61,.cls-62,.cls-63,.cls-64,.cls-9{fill:none;}.cls-2{fill:#fef;}.cls-3{isolation:isolate;}.cls-4{clip-path:url(#clip-path);}.cls-5{fill:url(#linear-gradient);}.cls-6{opacity:0.55;}.cls-6,.cls-7{mix-blend-mode:color-dodge;}.cls-7{fill:url(#radial-gradient);}.cls-8{mix-blend-mode:screen;}.cls-10,.cls-11,.cls-12,.cls-14,.cls-15,.cls-16,.cls-17,.cls-19,.cls-21,.cls-22,.cls-24,.cls-26,.cls-27,.cls-28,.cls-29,.cls-30,.cls-31,.cls-32,.cls-34,.cls-35,.cls-36,.cls-37,.cls-38,.cls-39,.cls-40,.cls-41,.cls-42,.cls-43,.cls-44,.cls-45,.cls-46,.cls-47,.cls-49,.cls-50,.cls-51,.cls-54,.cls-56,.cls-57,.cls-58,.cls-59,.cls-60,.cls-61,.cls-62,.cls-63,.cls-64,.cls-9{stroke-miterlimit:10;}.cls-14,.cls-17,.cls-22,.cls-27,.cls-31,.cls-32,.cls-50,.cls-54,.cls-56,.cls-57,.cls-58,.cls-59,.cls-60,.cls-61,.cls-62,.cls-63,.cls-64,.cls-9{stroke-width:0.5px;}.cls-9{stroke:url(#linear-gradient-2);}.cls-10{stroke:url(#linear-gradient-3);}.cls-11{stroke:url(#linear-gradient-4);}.cls-12{stroke:url(#linear-gradient-5);}.cls-13,.cls-18,.cls-20,.cls-23,.cls-25,.cls-33,.cls-48,.cls-52,.cls-53,.cls-55{stroke-linecap:round;stroke-linejoin:round;}.cls-13{stroke:url(#linear-gradient-6);}.cls-14{stroke:url(#linear-gradient-7);}.cls-15{stroke:url(#linear-gradient-8);}.cls-16{stroke:url(#linear-gradient-9);}.cls-17{stroke:url(#linear-gradient-10);}.cls-18{stroke:url(#linear-gradient-11);}.cls-19{stroke:url(#linear-gradient-12);}.cls-20{stroke:url(#linear-gradient-13);}.cls-21{stroke:url(#linear-gradient-14);}.cls-22{stroke:url(#linear-gradient-15);}.cls-23{stroke:url(#linear-gradient-16);}.cls-24{stroke:url(#linear-gradient-17);}.cls-25{stroke:url(#linear-gradient-18);}.cls-26{stroke:url(#linear-gradient-19);}.cls-27{stroke:url(#linear-gradient-20);}.cls-28{stroke:url(#linear-gradient-21);}.cls-29{stroke:url(#linear-gradient-22);}.cls-30{stroke:url(#linear-gradient-23);}.cls-31{stroke:url(#linear-gradient-24);}.cls-32{stroke:url(#linear-gradient-25);}.cls-33{stroke:url(#linear-gradient-26);}.cls-34{opacity:0.6;stroke:url(#linear-gradient-27);}.cls-35{opacity:0.4;stroke:url(#linear-gradient-28);}.cls-36,.cls-37,.cls-38,.cls-39,.cls-42,.cls-43,.cls-44,.cls-45,.cls-46{opacity:0.41;}.cls-36{stroke:url(#linear-gradient-29);}.cls-37{stroke:url(#linear-gradient-30);}.cls-38{stroke:url(#linear-gradient-31);}.cls-39{stroke:url(#linear-gradient-32);}.cls-40{stroke:url(#linear-gradient-33);}.cls-41{stroke:url(#linear-gradient-34);}.cls-42{stroke:url(#linear-gradient-35);}.cls-43{stroke:url(#linear-gradient-36);}.cls-44{stroke:url(#linear-gradient-37);}.cls-45{stroke:url(#linear-gradient-38);}.cls-46{stroke:url(#linear-gradient-39);}.cls-47{opacity:0.39;stroke:url(#linear-gradient-40);}.cls-48{stroke:url(#linear-gradient-41);}.cls-49{stroke:url(#linear-gradient-42);}.cls-50{stroke:url(#linear-gradient-43);}.cls-51{stroke:url(#linear-gradient-44);}.cls-52{stroke:url(#linear-gradient-45);}.cls-53{stroke:url(#linear-gradient-46);}.cls-54{stroke:url(#linear-gradient-47);}.cls-55{stroke:url(#linear-gradient-48);}.cls-56{stroke:url(#linear-gradient-49);}.cls-57{stroke:url(#linear-gradient-50);}.cls-58{stroke:url(#linear-gradient-51);}.cls-59{stroke:url(#linear-gradient-52);}.cls-60{stroke:url(#linear-gradient-53);}.cls-61{stroke:url(#linear-gradient-54);}.cls-62{stroke:url(#linear-gradient-55);}.cls-63{stroke:url(#linear-gradient-56);}.cls-64{stroke:url(#linear-gradient-57);}.cls-65{fill:#e7c4e8;}</style><clipPath id="clip-path"><rect class="cls-1" x="-35" y="-116" width="1401" height="934"/></clipPath><linearGradient id="linear-gradient" x1="1197.01" y1="919.04" x2="45.24" y2="-311.89" gradientUnits="userSpaceOnUse"><stop offset="0" stop-color="#8f258f"/><stop offset="1" stop-color="#004"/></linearGradient><radialGradient id="radial-gradient" cx="1161.33" cy="849.43" r="1542.99" gradientUnits="userSpaceOnUse"><stop offset="0.08" stop-color="#ffab00"/><stop offset="0.1" stop-color="orange" stop-opacity="0.93"/><stop offset="0.36" stop-color="#ff7100" stop-opacity="0.3"/><stop offset="0.47" stop-color="#ff5c00" stop-opacity="0.05"/><stop offset="0.7" stop-color="#ff7db1" stop-opacity="0.02"/><stop offset="1" stop-color="#ff8cff" stop-opacity="0"/></radialGradient><linearGradient id="linear-gradient-2" x1="730.45" y1="418.78" x2="870.16" y2="558.49" gradientUnits="userSpaceOnUse"><stop offset="0" stop-color="#b9438f"/><stop offset="0.99" stop-color="#6769ff"/></linearGradient><linearGradient id="linear-gradient-3" x1="906.19" y1="402.14" x2="1070.15" y2="566.1" xlink:href="#linear-gradient-2"/><linearGradient id="linear-gradient-4" x1="1005.63" y1="114.93" x2="1180.4" y2="289.7" xlink:href="#linear-gradient-2"/><linearGradient id="linear-gradient-5" x1="858.15" y1="199.9" x2="1050.27" y2="392.02" xlink:href="#linear-gradient-2"/><linearGradient id="linear-gradient-6" x1="780.99" y1="277.35" x2="972.35" y2="468.71" xlink:href="#linear-gradient-2"/><linearGradient id="linear-gradient-7" x1="643.02" y1="585.18" x2="721.23" y2="663.39" xlink:href="#linear-gradient-2"/><linearGradient id="linear-gradient-8" x1="566.07" y1="519.63" x2="715.87" y2="669.44" xlink:href="#linear-gradient-2"/><linearGradient id="linear-gradient-9" x1="532.31" y1="695.02" x2="764.6" y2="927.3" xlink:href="#linear-gradient-2"/><linearGradient id="linear-gradient-10" x1="979.36" y1="460.35" x2="1111.45" y2="592.44" xlink:href="#linear-gradient-2"/><linearGradient id="linear-gradient-11" x1="1165.21" y1="274.44" x2="1298.63" y2="407.86" xlink:href="#linear-gradient-2"/><linearGradient id="linear-gradient-12" x1="1102.15" y1="532.08" x2="1321.81" y2="751.75" xlink:href="#linear-gradient-2"/><linearGradient id="linear-gradient-13" x1="775.9" y1="532.77" x2="939.45" y2="696.33" xlink:href="#linear-gradient-2"/><linearGradient id="linear-gradient-14" x1="925.02" y1="709.23" x2="1079.06" y2="863.27" xlink:href="#linear-gradient-2"/><linearGradient id="linear-gradient-15" x1="746.05" y1="312.4" x2="899.83" y2="466.18" xlink:href="#linear-gradient-2"/><linearGradient id="linear-gradient-16" x1="858.36" y1="199.98" x2="972.06" y2="313.68" xlink:href="#linear-gradient-2"/><linearGradient id="linear-gradient-17" x1="829.07" y1="227.9" x2="983.65" y2="382.48" xlink:href="#linear-gradient-2"/><linearGradient id="linear-gradient-18" x1="1079.43" y1="203.74" x2="1158.38" y2="282.68" xlink:href="#linear-gradient-2"/><linearGradient id="linear-gradient-19" x1="708.95" y1="439.42" x2="848.41" y2="578.89" xlink:href="#linear-gradient-2"/><linearGradient id="linear-gradient-20" x1="614.64" y1="613.41" x2="737.49" y2="736.26" xlink:href="#linear-gradient-2"/><linearGradient id="linear-gradient-21" x1="826.22" y1="556.91" x2="952.92" y2="683.62" xlink:href="#linear-gradient-2"/><linearGradient id="linear-gradient-22" x1="893.66" y1="740.25" x2="1047.51" y2="894.1" xlink:href="#linear-gradient-2"/><linearGradient id="linear-gradient-23" x1="1280.22" y1="643.69" x2="1393.49" y2="756.97" xlink:href="#linear-gradient-2"/><linearGradient id="linear-gradient-24" x1="980.79" y1="383.77" x2="1152.35" y2="555.33" xlink:href="#linear-gradient-2"/><linearGradient id="linear-gradient-25" x1="1235.25" y1="467.84" x2="1347.5" y2="580.09" xlink:href="#linear-gradient-2"/><linearGradient id="linear-gradient-26" x1="1204.9" y1="263.72" x2="1433.95" y2="492.77" xlink:href="#linear-gradient-2"/><linearGradient id="linear-gradient-27" x1="499.34" y1="3.8" x2="777.54" y2="282" xlink:href="#linear-gradient-2"/><linearGradient id="linear-gradient-28" x1="867.59" y1="10.84" x2="956.86" y2="100.11" xlink:href="#linear-gradient-2"/><linearGradient id="linear-gradient-29" x1="698.09" y1="-31.72" x2="778.16" y2="48.35" xlink:href="#linear-gradient-2"/><linearGradient id="linear-gradient-30" x1="480.45" y1="1032.42" x2="527.18" y2="1079.15" gradientTransform="translate(685.09 -813.5) rotate(49.63)" xlink:href="#linear-gradient-2"/><linearGradient id="linear-gradient-31" x1="500.28" y1="131.24" x2="593.82" y2="224.78" xlink:href="#linear-gradient-2"/><linearGradient id="linear-gradient-32" x1="947.42" y1="-692.33" x2="1020.91" y2="-618.84" gradientTransform="translate(434.69 1262.72) rotate(-63.48)" xlink:href="#linear-gradient-2"/><linearGradient id="linear-gradient-33" x1="490.47" y1="294.55" x2="580.66" y2="384.73" xlink:href="#linear-gradient-2"/><linearGradient id="linear-gradient-34" x1="503.67" y1="451.51" x2="568.26" y2="516.09" xlink:href="#linear-gradient-2"/><linearGradient id="linear-gradient-35" x1="333.58" y1="296.58" x2="362.2" y2="325.2" xlink:href="#linear-gradient-2"/><linearGradient id="linear-gradient-36" x1="909.5" y1="1516.54" x2="938.11" y2="1545.15" gradientTransform="matrix(0.38, 0.92, -0.92, 0.38, 1257.9, -796)" xlink:href="#linear-gradient-2"/><linearGradient id="linear-gradient-37" x1="447.06" y1="1441.51" x2="475.67" y2="1470.12" gradientTransform="matrix(0.38, 0.92, -0.92, 0.38, 1257.9, -796)" xlink:href="#linear-gradient-2"/><linearGradient id="linear-gradient-38" x1="291.7" y1="609.66" x2="376.51" y2="694.47" xlink:href="#linear-gradient-2"/><linearGradient id="linear-gradient-39" x1="1375.11" y1="-693.86" x2="1485.15" y2="-583.82" gradientTransform="translate(1120.63 1749.1) rotate(-103.85)" xlink:href="#linear-gradient-2"/><linearGradient id="linear-gradient-40" x1="274.56" y1="410.53" x2="546.39" y2="682.36" xlink:href="#linear-gradient-2"/><linearGradient id="linear-gradient-41" x1="1124.06" y1="510.31" x2="1277.63" y2="663.88" xlink:href="#linear-gradient-2"/><linearGradient id="linear-gradient-42" x1="1200.47" y1="701.49" x2="1324.88" y2="825.9" xlink:href="#linear-gradient-2"/><linearGradient id="linear-gradient-43" x1="1142.94" y1="689.53" x2="1263.03" y2="809.61" xlink:href="#linear-gradient-2"/><linearGradient id="linear-gradient-44" x1="1302.18" y1="601.05" x2="1426.24" y2="725.1" xlink:href="#linear-gradient-2"/><linearGradient id="linear-gradient-45" x1="883.41" y1="132.81" x2="936.46" y2="185.86" xlink:href="#linear-gradient-2"/><linearGradient id="linear-gradient-46" x1="761.26" y1="622.16" x2="1013.78" y2="874.68" xlink:href="#linear-gradient-2"/><linearGradient id="linear-gradient-47" x1="677.7" y1="408.67" x2="761.54" y2="492.52" xlink:href="#linear-gradient-2"/><linearGradient id="linear-gradient-48" x1="677.55" y1="408.66" x2="789.49" y2="520.6" xlink:href="#linear-gradient-2"/><linearGradient id="linear-gradient-49" x1="981.09" y1="445.6" x2="1144.03" y2="608.54" xlink:href="#linear-gradient-2"/><linearGradient id="linear-gradient-50" x1="999.99" y1="634.17" x2="1099.8" y2="733.98" xlink:href="#linear-gradient-2"/><linearGradient id="linear-gradient-51" x1="1102.62" y1="649.08" x2="1179.11" y2="725.56" xlink:href="#linear-gradient-2"/><linearGradient id="linear-gradient-52" x1="1123.24" y1="579.75" x2="1224.05" y2="680.56" xlink:href="#linear-gradient-2"/><linearGradient id="linear-gradient-53" x1="1026.53" y1="94.39" x2="1136.36" y2="204.21" xlink:href="#linear-gradient-2"/><linearGradient id="linear-gradient-54" x1="1140.45" y1="199.16" x2="1323.93" y2="382.63" xlink:href="#linear-gradient-2"/><linearGradient id="linear-gradient-55" x1="1020.42" y1="264.1" x2="1098.68" y2="342.36" xlink:href="#linear-gradient-2"/><linearGradient id="linear-gradient-56" x1="692.29" y1="691.28" x2="845.56" y2="844.55" xlink:href="#linear-gradient-2"/><linearGradient id="linear-gradient-57" x1="917.78" y1="716.85" x2="1017.22" y2="816.29" xlink:href="#linear-gradient-2"/><symbol id="New_Symbol_5" data-name="New Symbol 5" viewBox="0 0 1.85 1.85"><circle class="cls-2" cx="0.93" cy="0.93" r="0.93"/></symbol></defs><title>Artboard 1</title><g class="cls-3"><g id="Layer_1" data-name="Layer 1"><g class="cls-4"><rect class="cls-5" x="-35" y="-116" width="1401" height="934"/><g class="cls-6"><use width="1.85" height="1.85" transform="translate(724.58 428.85) scale(1.87 1.87)" xlink:href="#New_Symbol_5"/><use width="1.85" height="1.85" transform="translate(656.85 431.66) scale(1.87 1.87)" xlink:href="#New_Symbol_5"/><use width="1.85" height="1.85" transform="translate(567.8 461.78) scale(2.68 2.68)" xlink:href="#New_Symbol_5"/><use width="1.85" height="1.85" transform="translate(567.5 483.73) scale(2.95 2.95)" xlink:href="#New_Symbol_5"/><use width="1.85" height="1.85" transform="translate(624.17 504.51) scale(1.87 1.87)" xlink:href="#New_Symbol_5"/><use width="1.85" height="1.85" transform="translate(748.68 544.11) scale(1.87 1.87)" xlink:href="#New_Symbol_5"/><use width="1.85" height="1.85" transform="translate(828.84 598.69) scale(1.87 1.87)" xlink:href="#New_Symbol_5"/><use width="1.85" height="1.85" transform="translate(860.65 677.87) scale(1.87 1.87)" xlink:href="#New_Symbol_5"/><use width="1.85" height="1.85" transform="translate(736.76 712.38) scale(1.87 1.87)" xlink:href="#New_Symbol_5"/><use width="1.85" height="1.85" transform="translate(570.19 714.73) scale(1.87 1.87)" xlink:href="#New_Symbol_5"/><use width="1.85" height="1.85" transform="translate(556.19 720.46) scale(1.87 1.87)" xlink:href="#New_Symbol_5"/><use width="1.85" height="1.85" transform="translate(579.72 698.15) scale(1.87 1.87)" xlink:href="#New_Symbol_5"/><use width="1.85" height="1.85" transform="translate(697.72 588.85) scale(2.79 2.79)" xlink:href="#New_Symbol_5"/><use width="1.85" height="1.85" transform="translate(784.63 620.03) scale(1.87 1.87)" xlink:href="#New_Symbol_5"/><use width="1.85" height="1.85" transform="translate(946.3 616.9) scale(4.28 4.28)" xlink:href="#New_Symbol_5"/><use width="1.85" height="1.85" transform="translate(1108.31 601.11) scale(1.87 1.87)" xlink:href="#New_Symbol_5"/><use width="1.85" height="1.85" transform="translate(1231.8 466.7) scale(1.87 1.87)" xlink:href="#New_Symbol_5"/><use width="1.85" height="1.85" transform="translate(1176.72 434.09) scale(1.87 1.87)" xlink:href="#New_Symbol_5"/><use width="1.85" height="1.85" transform="translate(1177.28 373.91) scale(1.87 1.87)" xlink:href="#New_Symbol_5"/><use width="1.85" height="1.85" transform="translate(1091.51 386.57) scale(3.81 3.81)" xlink:href="#New_Symbol_5"/><use width="1.85" height="1.85" transform="translate(1089.89 401.14) scale(5.54 5.54)" xlink:href="#New_Symbol_5"/><use width="1.85" height="1.85" transform="translate(1032.49 400.52) scale(1.87 1.87)" xlink:href="#New_Symbol_5"/><use width="1.85" height="1.85" transform="translate(987.28 321.58) scale(1.87 1.87)" xlink:href="#New_Symbol_5"/><use width="1.85" height="1.85" transform="translate(915 252.35) scale(1.87 1.87)" xlink:href="#New_Symbol_5"/><use width="1.85" height="1.85" transform="translate(835.73 225.04) scale(1.87 1.87)" xlink:href="#New_Symbol_5"/><use width="1.85" height="1.85" transform="translate(799.01 201.76) scale(1.87 1.87)" xlink:href="#New_Symbol_5"/><use width="1.85" height="1.85" transform="translate(560.97 276.88) scale(1.87 1.87)" xlink:href="#New_Symbol_5"/><use width="1.85" height="1.85" transform="translate(468.44 249.38) scale(1.87 1.87)" xlink:href="#New_Symbol_5"/><use width="1.85" height="1.85" transform="translate(601.52 121.34) scale(1.87 1.87)" xlink:href="#New_Symbol_5"/><use width="1.85" height="1.85" transform="translate(799.4 93.42) scale(1.87 1.87)" xlink:href="#New_Symbol_5"/><use width="1.85" height="1.85" transform="translate(895.82 82.52) scale(1.87 1.87)" xlink:href="#New_Symbol_5"/><use width="1.85" height="1.85" transform="translate(940.15 74.53) scale(1.87 1.87)" xlink:href="#New_Symbol_5"/><use width="1.85" height="1.85" transform="translate(1122.7 0.09) scale(1.87 1.87)" xlink:href="#New_Symbol_5"/><use width="1.85" height="1.85" transform="translate(1098.61 66.87) scale(1.87 1.87)" xlink:href="#New_Symbol_5"/><use width="1.85" height="1.85" transform="translate(921.56 151.25) scale(1.87 1.87)" xlink:href="#New_Symbol_5"/><use width="1.85" height="1.85" transform="translate(634.36 221.19) scale(1.87 1.87)" xlink:href="#New_Symbol_5"/><use width="1.85" height="1.85" transform="translate(657.51 287.3) scale(1.87 1.87)" xlink:href="#New_Symbol_5"/><use width="1.85" height="1.85" transform="translate(605.66 326.04) scale(4.61 4.61)" xlink:href="#New_Symbol_5"/><use width="1.85" height="1.85" transform="translate(469.5 374.91) scale(1.87 1.87)" xlink:href="#New_Symbol_5"/><use width="1.85" height="1.85" transform="translate(316.11 389.19) scale(1.87 1.87)" xlink:href="#New_Symbol_5"/><use width="1.85" height="1.85" transform="translate(247.59 464.99) scale(3.19 3.19)" xlink:href="#New_Symbol_5"/><use width="1.85" height="1.85" transform="translate(244.28 494.89) scale(3.62 3.62)" xlink:href="#New_Symbol_5"/><use width="1.85" height="1.85" transform="translate(198.64 544.48) scale(1.87 1.87)" xlink:href="#New_Symbol_5"/><use width="1.85" height="1.85" transform="translate(166.1 627.49) scale(1.87 1.87)" xlink:href="#New_Symbol_5"/><use width="1.85" height="1.85" transform="translate(184.83 598.48) scale(1.87 1.87)" xlink:href="#New_Symbol_5"/><use width="1.85" height="1.85" transform="translate(174.65 613.21) scale(1.87 1.87)" xlink:href="#New_Symbol_5"/><use width="1.85" height="1.85" transform="translate(217.58 619.78) scale(1.87 1.87)" xlink:href="#New_Symbol_5"/><use width="1.85" height="1.85" transform="translate(200.27 578.73) scale(1.87 1.87)" xlink:href="#New_Symbol_5"/><use width="1.85" height="1.85" transform="translate(188.78 571.67) scale(1.87 1.87)" xlink:href="#New_Symbol_5"/><use width="1.85" height="1.85" transform="translate(370.03 719.85) scale(1.87 1.87)" xlink:href="#New_Symbol_5"/><use width="1.85" height="1.85" transform="translate(435.12 748.08) scale(2.84 2.84)" xlink:href="#New_Symbol_5"/><use width="1.85" height="1.85" transform="translate(468.4 762.4) scale(2.37 2.37)" xlink:href="#New_Symbol_5"/><use width="1.85" height="1.85" transform="translate(460.14 687) scale(5.16 5.16)" xlink:href="#New_Symbol_5"/><use width="1.85" height="1.85" transform="translate(452.23 647.45) scale(1.87 1.87)" xlink:href="#New_Symbol_5"/><use width="1.85" height="1.85" transform="translate(494.95 669.99) scale(3.49 3.49)" xlink:href="#New_Symbol_5"/><use width="1.85" height="1.85" transform="translate(606.18 741.91) scale(1.87 1.87)" xlink:href="#New_Symbol_5"/><use width="1.85" height="1.85" transform="translate(427.65 758.49) scale(1.87 1.87)" xlink:href="#New_Symbol_5"/><use width="1.85" height="1.85" transform="translate(300.38 765.18) scale(1.87 1.87)" xlink:href="#New_Symbol_5"/><use width="1.85" height="1.85" transform="translate(532.62 762.85) scale(1.87 1.87)" xlink:href="#New_Symbol_5"/><use width="1.85" height="1.85" transform="translate(597.32 753.42) scale(1.87 1.87)" xlink:href="#New_Symbol_5"/><use width="1.85" height="1.85" transform="translate(775.04 734.11) scale(1.87 1.87)" xlink:href="#New_Symbol_5"/><use width="1.85" height="1.85" transform="translate(772.76 763.54) scale(1.87 1.87)" xlink:href="#New_Symbol_5"/><use width="1.85" height="1.85" transform="translate(743.59 728.71) scale(1.87 1.87)" xlink:href="#New_Symbol_5"/><use width="1.85" height="1.85" transform="translate(747.73 750.93) scale(1.87 1.87)" xlink:href="#New_Symbol_5"/><use width="1.85" height="1.85" transform="translate(819.97 753.94) scale(1.87 1.87)" xlink:href="#New_Symbol_5"/><use width="1.85" height="1.85" transform="translate(1071.65 727.54) scale(1.87 1.87)" xlink:href="#New_Symbol_5"/><use width="1.85" height="1.85" transform="translate(923.96 455.55) scale(1.87 1.87)" xlink:href="#New_Symbol_5"/><use width="1.85" height="1.85" transform="translate(883.12 497.56) scale(1.87 1.87)" xlink:href="#New_Symbol_5"/><use width="1.85" height="1.85" transform="translate(867.63 390.4) scale(1.87 1.87)" xlink:href="#New_Symbol_5"/><use width="1.85" height="1.85" transform="translate(874.51 365.35) scale(1.87 1.87)" xlink:href="#New_Symbol_5"/><use width="1.85" height="1.85" transform="translate(839.22 359.59) scale(1.87 1.87)" xlink:href="#New_Symbol_5"/><use width="1.85" height="1.85" transform="translate(1029.07 172.12) scale(6.24 6.24)" xlink:href="#New_Symbol_5"/><use width="1.85" height="1.85" transform="translate(1027.11 131.18) scale(2.14 2.14)" xlink:href="#New_Symbol_5"/><use width="1.85" height="1.85" transform="translate(1047.76 134.35) scale(1.97 1.97)" xlink:href="#New_Symbol_5"/><use width="1.85" height="1.85" transform="translate(1093.95 118.38) scale(2.24 2.24)" xlink:href="#New_Symbol_5"/><use width="1.85" height="1.85" transform="translate(1091.16 106.39) scale(1.87 1.87)" xlink:href="#New_Symbol_5"/><use width="1.85" height="1.85" transform="translate(1076.52 99.37) scale(1.87 1.87)" xlink:href="#New_Symbol_5"/><use width="1.85" height="1.85" transform="translate(1074.95 107.82) scale(1.87 1.87)" xlink:href="#New_Symbol_5"/><use width="1.85" height="1.85" transform="translate(1103.39 211.46) scale(1.87 1.87)" xlink:href="#New_Symbol_5"/><use width="1.85" height="1.85" transform="translate(1137.6 264.93) scale(1.87 1.87)" xlink:href="#New_Symbol_5"/><use width="1.85" height="1.85" transform="translate(1237.8 260.1) scale(1.87 1.87)" xlink:href="#New_Symbol_5"/><use width="1.85" height="1.85" transform="translate(604.6 146.1) scale(1.87 1.87)" xlink:href="#New_Symbol_5"/><use width="1.85" height="1.85" transform="translate(464.45 76.96) scale(5.4 5.4)" xlink:href="#New_Symbol_5"/><use width="1.85" height="1.85" transform="translate(426.57 49.4) scale(2.85 2.85)" xlink:href="#New_Symbol_5"/><use width="1.85" height="1.85" transform="translate(371.37 67.13) scale(1.87 1.87)" xlink:href="#New_Symbol_5"/><use width="1.85" height="1.85" transform="translate(346.17 21.34) scale(1.87 1.87)" xlink:href="#New_Symbol_5"/><use width="1.85" height="1.85" transform="translate(301.03 -1.37) scale(1.87 1.87)" xlink:href="#New_Symbol_5"/><use width="1.85" height="1.85" transform="translate(360.09 160.88) scale(1.87 1.87)" xlink:href="#New_Symbol_5"/><use width="1.85" height="1.85" transform="translate(324.55 133.13) scale(1.87 1.87)" xlink:href="#New_Symbol_5"/><use width="1.85" height="1.85" transform="translate(246.93 87.38) scale(1.87 1.87)" xlink:href="#New_Symbol_5"/><use width="1.85" height="1.85" transform="translate(268.46 120.06) scale(1.87 1.87)" xlink:href="#New_Symbol_5"/><use width="1.85" height="1.85" transform="translate(304.82 197.03) scale(1.87 1.87)" xlink:href="#New_Symbol_5"/><use width="1.85" height="1.85" transform="translate(179.22 228.89) scale(1.87 1.87)" xlink:href="#New_Symbol_5"/></g><g class="cls-6"><use width="1.85" height="1.85" transform="translate(132.18 130.88) scale(1.87 1.87)" xlink:href="#New_Symbol_5"/><use width="1.85" height="1.85" transform="translate(62.99 9.46) scale(1.87 1.87)" xlink:href="#New_Symbol_5"/><use width="1.85" height="1.85" transform="translate(95.22 0.34) scale(1.87 1.87)" xlink:href="#New_Symbol_5"/><use width="1.85" height="1.85" transform="translate(101.52 55.44) scale(1.87 1.87)" xlink:href="#New_Symbol_5"/><use width="1.85" height="1.85" transform="translate(165.39 12.19) scale(1.87 1.87)" xlink:href="#New_Symbol_5"/><use width="1.85" height="1.85" transform="translate(-2.12 217.66) scale(1.87 1.87)" xlink:href="#New_Symbol_5"/><use width="1.85" height="1.85" transform="translate(2.02 306.67) scale(1.87 1.87)" xlink:href="#New_Symbol_5"/><use width="1.85" height="1.85" transform="translate(58.26 364.78) scale(1.87 1.87)" xlink:href="#New_Symbol_5"/><use width="1.85" height="1.85" transform="translate(70.84 349.41) scale(1.87 1.87)" xlink:href="#New_Symbol_5"/><use width="1.85" height="1.85" transform="translate(127.69 349.29) scale(1.87 1.87)" xlink:href="#New_Symbol_5"/><use width="1.85" height="1.85" transform="translate(135.7 330.06) scale(1.87 1.87)" xlink:href="#New_Symbol_5"/><use width="1.85" height="1.85" transform="translate(102.68 285.78) scale(1.87 1.87)" xlink:href="#New_Symbol_5"/><use width="1.85" height="1.85" transform="translate(133.21 294.34) scale(1.87 1.87)" xlink:href="#New_Symbol_5"/><use width="1.85" height="1.85" transform="translate(176.09 310.23) scale(1.87 1.87)" xlink:href="#New_Symbol_5"/><use width="1.85" height="1.85" transform="translate(192.15 334.33) scale(1.87 1.87)" xlink:href="#New_Symbol_5"/><use width="1.85" height="1.85" transform="translate(136.58 366.85) scale(1.87 1.87)" xlink:href="#New_Symbol_5"/><use width="1.85" height="1.85" transform="translate(25.36 480.38) scale(1.87 1.87)" xlink:href="#New_Symbol_5"/><use width="1.85" height="1.85" transform="translate(91.17 419.78) scale(1.87 1.87)" xlink:href="#New_Symbol_5"/><use width="1.85" height="1.85" transform="translate(94.34 436.15) scale(1.87 1.87)" xlink:href="#New_Symbol_5"/><use width="1.85" height="1.85" transform="translate(27.76 506.21) scale(1.87 1.87)" xlink:href="#New_Symbol_5"/><use width="1.85" height="1.85" transform="translate(23.15 682.95) scale(1.87 1.87)" xlink:href="#New_Symbol_5"/><use width="1.85" height="1.85" transform="translate(121.81 692.4) scale(1.87 1.87)" xlink:href="#New_Symbol_5"/><use width="1.85" height="1.85" transform="translate(118.14 564.3) scale(1.87 1.87)" xlink:href="#New_Symbol_5"/><use width="1.85" height="1.85" transform="translate(160.27 630.62) scale(1.87 1.87)" xlink:href="#New_Symbol_5"/><use width="1.85" height="1.85" transform="translate(151.75 674.61) scale(1.87 1.87)" xlink:href="#New_Symbol_5"/><use width="1.85" height="1.85" transform="translate(162.26 748.68) scale(1.87 1.87)" xlink:href="#New_Symbol_5"/><use width="1.85" height="1.85" transform="translate(80.24 631.01) scale(1.87 1.87)" xlink:href="#New_Symbol_5"/><use width="1.85" height="1.85" transform="translate(206.95 105.47) scale(1.87 1.87)" xlink:href="#New_Symbol_5"/><use width="1.85" height="1.85" transform="translate(215.86 135.91) scale(1.87 1.87)" xlink:href="#New_Symbol_5"/><use width="1.85" height="1.85" transform="translate(218.72 150.54) scale(1.87 1.87)" xlink:href="#New_Symbol_5"/><use width="1.85" height="1.85" transform="translate(72.41 124.44) scale(1.87 1.87)" xlink:href="#New_Symbol_5"/><use width="1.85" height="1.85" transform="translate(1260.81 12.2) scale(1.87 1.87)" xlink:href="#New_Symbol_5"/><use width="1.85" height="1.85" transform="translate(1330.16 91.13) scale(1.87 1.87)" xlink:href="#New_Symbol_5"/><use width="1.85" height="1.85" transform="translate(1332.74 117.39) scale(1.87 1.87)" xlink:href="#New_Symbol_5"/><use width="1.85" height="1.85" transform="translate(1214.73 58.64) scale(1.87 1.87)" xlink:href="#New_Symbol_5"/><use width="1.85" height="1.85" transform="translate(1153.24 18.6) scale(1.87 1.87)" xlink:href="#New_Symbol_5"/><use width="1.85" height="1.85" transform="translate(1182.52 5.8) scale(1.87 1.87)" xlink:href="#New_Symbol_5"/><use width="1.85" height="1.85" transform="translate(1332.43 132.5) scale(1.87 1.87)" xlink:href="#New_Symbol_5"/><use width="1.85" height="1.85" transform="translate(1343.62 211.47) scale(1.87 1.87)" xlink:href="#New_Symbol_5"/><use width="1.85" height="1.85" transform="translate(805.98 4.69) scale(1.87 1.87)" xlink:href="#New_Symbol_5"/><use width="1.85" height="1.85" transform="translate(947.08 28.3) scale(1.87 1.87)" xlink:href="#New_Symbol_5"/><use width="1.85" height="1.85" transform="translate(253.39 359.73) scale(1.87 1.87)" xlink:href="#New_Symbol_5"/><use width="1.85" height="1.85" transform="translate(1233.48 101.35) scale(1.87 1.87)" xlink:href="#New_Symbol_5"/><use width="1.85" height="1.85" transform="translate(1321.43 184.63) scale(1.87 1.87)" xlink:href="#New_Symbol_5"/><use width="1.85" height="1.85" transform="translate(1329.19 278.24) scale(1.87 1.87)" xlink:href="#New_Symbol_5"/><use width="1.85" height="1.85" transform="translate(47.84 742.83) scale(1.87 1.87)" xlink:href="#New_Symbol_5"/></g><circle class="cls-7" cx="898.55" cy="733.05" r="1114.35"/><g class="cls-8"><polygon class="cls-9" points="918.25 509.4 733.94 519.47 748.43 401.42 918.25 509.4"/><polygon class="cls-10" points="1062.11 378.24 994.88 640.19 816.39 492.99 1062.11 378.24"/><path class="cls-11" d="M1175.7,108.18c-3.48,0-216.75,54.48-216.75,54.48l103.16,215.59L1283.5,185.84Z"/><polygon class="cls-12" points="789.76 269.29 958.95 162.65 1062.11 378.24 789.76 269.29"/><polygon class="cls-13" points="816.39 492.99 1062.11 378.24 789.76 269.29 816.39 492.99"/><polygon class="cls-14" points="565.28 663.38 733.94 519.47 757.84 626.28 565.28 663.38"/><polygon class="cls-15" points="639.18 447.79 565.28 663.38 757.84 626.28 639.18 447.79"/><path class="cls-16" d="M868.55,820.8c-5.8,0-304,121.91-303.26,118.43s0-275.86,0-275.86Z"/><polygon class="cls-17" points="1182.65 520.81 1062.11 378.24 994.88 640.19 1182.65 520.81"/><polygon class="cls-18" points="1283.49 185.84 1062.11 378.24 1245.25 460.54 1283.49 185.84"/><polygon class="cls-19" points="994.88 640.19 1234.81 837.24 1245.25 460.54 994.88 640.19"/><polygon class="cls-20" points="757.84 626.28 994.88 640.19 816.39 492.99 757.84 626.28"/><polygon class="cls-21" points="1162.75 778.05 868.54 820.8 994.88 640.19 1162.75 778.05"/><polygon class="cls-22" points="789.76 269.29 748.43 401.42 939.25 425.76 789.76 269.29"/><polygon class="cls-23" points="958.95 162.65 986.77 298.27 789.76 269.29 958.95 162.65"/><polygon class="cls-24" points="939.25 425.76 986.77 298.27 789.76 269.29 939.25 425.76"/><polygon class="cls-25" points="1175.7 108.18 986.77 298.27 1062.11 378.24 1175.7 108.18"/><polygon class="cls-26" points="757.84 626.28 917.23 509.22 748.43 401.42 757.84 626.28"/><polygon class="cls-27" points="671.88 801.34 757.84 626.28 565.28 663.38 671.88 801.34"/><polygon class="cls-28" points="917.23 509.22 994.88 640.19 757.84 626.28 917.23 509.22"/><polygon class="cls-29" points="994.88 640.19 905.64 982.12 1162.75 778.05 994.88 640.19"/><path class="cls-30" d="M1399.4,526.6s-56.79,284-60.27,284-104.32,26.66-104.32,26.66Z"/><polygon class="cls-31" points="917.23 509.22 1245.25 460.54 939.25 425.76 917.23 509.22"/><polygon class="cls-32" points="1399.4 526.6 1245.25 460.54 1182.65 520.81 1399.4 526.6"/><polygon class="cls-33" points="1283.49 185.84 1399.4 526.6 1245.25 460.54 1283.49 185.84"/><polyline class="cls-34" points="443.16 60.66 593.17 -14.69 673.27 168.45 671.45 269.29 789.76 269.29"/><polygon class="cls-35" points="905.64 -26.28 843.84 173.09 1049.94 6.18 905.64 -26.28"/><polygon class="cls-36" points="681.93 -14.69 788.35 -62.21 716.91 108.18 681.93 -14.69"/><polygon class="cls-37" points="196.06 220.77 256.79 249.82 155.08 282.13 196.06 220.77"/><polygon class="cls-38" points="454.75 177.72 558.88 96.59 639.18 177.72 454.75 177.72"/><polygon class="cls-39" points="251.99 144.76 239.43 61.15 322.3 33.93 251.99 144.76"/><polygon class="cls-40" points="438.53 347.53 547.62 264.65 632.97 330.72 438.53 347.53"/><polygon class="cls-41" points="527.43 555.58 506.75 449.53 580.69 447.79 527.43 555.58"/><polygon class="cls-42" points="345.8 285.52 335.37 330.72 378.25 308.12 345.8 285.52"/><polygon class="cls-43" points="222.26 633.48 176.52 641.22 213.87 672.13 222.26 633.48"/><polygon class="cls-44" points="113.82 177.72 68.08 185.46 105.42 216.37 113.82 177.72"/><polygon class="cls-45" points="289.01 701.6 340 562.54 413.03 656.9 289.01 701.6"/><polygon class="cls-46" points="233.39 566.59 39.09 531.63 151.31 419.45 233.39 566.59"/><polyline class="cls-47" points="565.28 663.38 475.62 548.63 462.87 679.02 378.25 432.72 304.07 381.14"/><polygon class="cls-48" points="994.88 640.19 1399.4 526.6 1162.75 778.05 994.88 640.19"/><polygon class="cls-49" points="1339.13 810.58 1252.14 651.84 1234.81 837.24 1339.13 810.58"/><polygon class="cls-50" points="1252.14 651.84 1069.65 763.32 1234.81 837.24 1252.14 651.84"/><polygon class="cls-51" points="1399.4 526.6 1252.14 651.84 1339.13 810.58 1399.4 526.6"/><polygon class="cls-52" points="843.84 173.09 958.95 162.65 946.89 116.44 843.84 173.09"/><polygon class="cls-53" points="757.84 626.28 994.88 640.19 905.64 982.12 757.84 626.28"/><polygon class="cls-54" points="638.85 448.07 733.94 519.47 748.43 401.42 638.85 448.07"/><polygon class="cls-55" points="638.85 448.07 816.39 492.99 748.43 401.42 638.85 448.07"/><polygon class="cls-56" points="918.25 509.4 1182.65 520.81 1088.77 663.38 918.25 509.4"/><polygon class="cls-57" points="1069.65 763.32 1088.77 663.38 994.88 640.19 1069.65 763.32"/><polygon class="cls-58" points="1252.14 651.84 1088.77 663.38 1069.65 763.32 1252.14 651.84"/><polygon class="cls-59" points="1182.65 520.81 1252.14 651.84 1088.77 663.38 1182.65 520.81"/><polygon class="cls-60" points="958.95 162.65 1084.27 255.88 1175.7 108.18 958.95 162.65"/><polygon class="cls-61" points="1283.49 185.84 1084.27 255.88 1245.25 460.54 1283.49 185.84"/><polygon class="cls-62" points="986.77 298.27 1084.27 255.88 1062.11 378.24 986.77 298.27"/><polygon class="cls-63" points="757.84 626.28 671.88 801.34 868.54 820.8 757.84 626.28"/><polygon class="cls-64" points="1069.65 763.32 868.54 820.8 994.88 640.19 1069.65 763.32"/></g><circle class="cls-2" cx="958.3" cy="162.63" r="5.73"/><circle class="cls-2" cx="790.03" cy="269.91" r="6.93"/><circle class="cls-2" cx="638.85" cy="448.07" r="6.81"/><circle class="cls-2" cx="758.67" cy="626.2" r="8.86"/><circle class="cls-2" cx="918.25" cy="509.4" r="4.5"/><circle class="cls-2" cx="1182.66" cy="520.81" r="4.5"/><circle class="cls-2" cx="733.94" cy="519.47" r="4.5"/><circle class="cls-2" cx="748.43" cy="401.42" r="4.5"/><circle class="cls-65" cx="476.64" cy="551.08" r="4.5"/><circle class="cls-65" cx="289.01" cy="702.77" r="4.5"/><circle class="cls-65" cx="378.25" cy="434.67" r="4.5"/><circle class="cls-65" cx="463.52" cy="679.31" r="4.5"/><circle class="cls-2" cx="673.27" cy="269.91" r="4.5"/><circle class="cls-2" cx="506.75" cy="451.68" r="4.5"/><circle class="cls-65" cx="438.53" cy="347.53" r="4.5"/><circle class="cls-65" cx="673.27" cy="168.37" r="4.5"/><circle class="cls-65" cx="1049.94" cy="5.79" r="4.5"/><circle class="cls-2" cx="938.47" cy="425.67" r="4.5"/><circle class="cls-2" cx="1084.27" cy="255.87" r="4.5"/><circle class="cls-2" cx="1088.77" cy="663.38" r="4.5"/><circle class="cls-2" cx="1070.19" cy="763.32" r="4.5"/><circle class="cls-2" cx="1252.14" cy="651.84" r="4.5"/><circle class="cls-2" cx="1061.33" cy="379.5" r="8.86"/><circle class="cls-2" cx="816.39" cy="492.99" r="8.86"/><circle class="cls-2" cx="1245.25" cy="460.54" r="8.86"/><circle class="cls-2" cx="994.88" cy="640.19" r="8.86"/><circle class="cls-2" cx="985.45" cy="298.83" r="8.86"/><circle class="cls-2" cx="566.16" cy="663.74" r="6.81"/><circle class="cls-2" cx="1283.12" cy="185.31" r="5.63"/><circle class="cls-2" cx="1175.7" cy="108.18" r="5.63"/></g></g></g></svg>