<svg xmlns="http://www.w3.org/2000/svg" xmlns:xlink="http://www.w3.org/1999/xlink" viewBox="0 0 1366 768"><defs><style>.cls-1,.cls-10,.cls-11,.cls-12,.cls-13,.cls-14,.cls-15,.cls-16,.cls-17,.cls-18,.cls-19,.cls-20,.cls-21,.cls-22,.cls-23,.cls-24,.cls-25,.cls-26,.cls-27,.cls-28,.cls-29,.cls-30,.cls-31,.cls-32,.cls-33,.cls-34,.cls-35,.cls-36,.cls-37,.cls-38,.cls-39,.cls-40,.cls-41,.cls-42,.cls-43,.cls-44,.cls-45,.cls-46,.cls-47,.cls-48,.cls-49,.cls-50,.cls-51,.cls-52,.cls-53,.cls-54,.cls-55,.cls-56,.cls-57,.cls-58,.cls-59,.cls-60,.cls-61,.cls-62,.cls-63,.cls-64,.cls-9{fill:none;}.cls-2{fill:#fef;}.cls-3{isolation:isolate;}.cls-4{clip-path:url(#clip-path);}.cls-5{fill:url(#linear-gradient);}.cls-6{opacity:0.55;}.cls-6,.cls-7{mix-blend-mode:color-dodge;}.cls-7{fill:url(#radial-gradient);}.cls-8{mix-blend-mode:screen;}.cls-10,.cls-11,.cls-12,.cls-14,.cls-15,.cls-16,.cls-17,.cls-19,.cls-21,.cls-22,.cls-24,.cls-26,.cls-27,.cls-28,.cls-29,.cls-30,.cls-31,.cls-32,.cls-34,.cls-35,.cls-36,.cls-37,.cls-38,.cls-39,.cls-40,.cls-41,.cls-42,.cls-43,.cls-44,.cls-45,.cls-46,.cls-47,.cls-49,.cls-50,.cls-51,.cls-54,.cls-56,.cls-57,.cls-58,.cls-59,.cls-60,.cls-61,.cls-62,.cls-63,.cls-64,.cls-9{stroke-miterlimit:10;}.cls-14,.cls-17,.cls-22,.cls-27,.cls-31,.cls-32,.cls-50,.cls-54,.cls-56,.cls-57,.cls-58,.cls-59,.cls-60,.cls-61,.cls-62,.cls-63,.cls-64,.cls-9{stroke-width:0.5px;}.cls-9{stroke:url(#linear-gradient-2);}.cls-10{stroke:url(#linear-gradient-3);}.cls-11{stroke:url(#linear-gradient-4);}.cls-12{stroke:url(#linear-gradient-5);}.cls-13,.cls-18,.cls-20,.cls-23,.cls-25,.cls-33,.cls-48,.cls-52,.cls-53,.cls-55{stroke-linecap:round;stroke-linejoin:round;}.cls-13{stroke:url(#linear-gradient-6);}.cls-14{stroke:url(#linear-gradient-7);}.cls-15{stroke:url(#linear-gradient-8);}.cls-16{stroke:url(#linear-gradient-9);}.cls-17{stroke:url(#linear-gradient-10);}.cls-18{stroke:url(#linear-gradient-11);}.cls-19{stroke:url(#linear-gradient-12);}.cls-20{stroke:url(#linear-gradient-13);}.cls-21{stroke:url(#linear-gradient-14);}.cls-22{stroke:url(#linear-gradient-15);}.cls-23{stroke:url(#linear-gradient-16);}.cls-24{stroke:url(#linear-gradient-17);}.cls-25{stroke:url(#linear-gradient-18);}.cls-26{stroke:url(#linear-gradient-19);}.cls-27{stroke:url(#linear-gradient-20);}.cls-28{stroke:url(#linear-gradient-21);}.cls-29{stroke:url(#linear-gradient-22);}.cls-30{stroke:url(#linear-gradient-23);}.cls-31{stroke:url(#linear-gradient-24);}.cls-32{stroke:url(#linear-gradient-25);}.cls-33{stroke:url(#linear-gradient-26);}.cls-34{opacity:0.6;stroke:url(#linear-gradient-27);}.cls-35{opacity:0.4;stroke:url(#linear-gradient-28);}.cls-36,.cls-37,.cls-38,.cls-39,.cls-42,.cls-43,.cls-44,.cls-45,.cls-46{opacity:0.41;}.cls-36{stroke:url(#linear-gradient-29);}.cls-37{stroke:url(#linear-gradient-30);}.cls-38{stroke:url(#linear-gradient-31);}.cls-39{stroke:url(#linear-gradient-32);}.cls-40{stroke:url(#linear-gradient-33);}.cls-41{stroke:url(#linear-gradient-34);}.cls-42{stroke:url(#linear-gradient-35);}.cls-43{stroke:url(#linear-gradient-36);}.cls-44{stroke:url(#linear-gradient-37);}.cls-45{stroke:url(#linear-gradient-38);}.cls-46{stroke:url(#linear-gradient-39);}.cls-47{opacity:0.39;stroke:url(#linear-gradient-40);}.cls-48{stroke:url(#linear-gradient-41);}.cls-49{stroke:url(#linear-gradient-42);}.cls-50{stroke:url(#linear-gradient-43);}.cls-51{stroke:url(#linear-gradient-44);}.cls-52{stroke:url(#linear-gradient-45);}.cls-53{stroke:url(#linear-gradient-46);}.cls-54{stroke:url(#linear-gradient-47);}.cls-55{stroke:url(#linear-gradient-48);}.cls-56{stroke:url(#linear-gradient-49);}.cls-57{stroke:url(#linear-gradient-50);}.cls-58{stroke:url(#linear-gradient-51);}.cls-59{stroke:url(#linear-gradient-52);}.cls-60{stroke:url(#linear-gradient-53);}.cls-61{stroke:url(#linear-gradient-54);}.cls-62{stroke:url(#linear-gradient-55);}.cls-63{stroke:url(#linear-gradient-56);}.cls-64{stroke:url(#linear-gradient-57);}.cls-65{fill:#e7c4e8;}</style><clipPath id="clip-path"><rect class="cls-1" x="-17" y="-116" width="1401" height="934"/></clipPath><linearGradient id="linear-gradient" x1="1215.01" y1="919.04" x2="63.24" y2="-311.89" gradientUnits="userSpaceOnUse"><stop offset="0" stop-color="#8f258f"/><stop offset="1" stop-color="#004"/></linearGradient><radialGradient id="radial-gradient" cx="1179.33" cy="849.43" r="1542.99" gradientUnits="userSpaceOnUse"><stop offset="0.08" stop-color="#ffab00"/><stop offset="0.1" stop-color="orange" stop-opacity="0.93"/><stop offset="0.36" stop-color="#ff7100" stop-opacity="0.3"/><stop offset="0.47" stop-color="#ff5c00" stop-opacity="0.05"/><stop offset="0.7" stop-color="#ff7db1" stop-opacity="0.02"/><stop offset="1" stop-color="#ff8cff" stop-opacity="0"/></radialGradient><linearGradient id="linear-gradient-2" x1="748.45" y1="418.78" x2="888.16" y2="558.49" gradientUnits="userSpaceOnUse"><stop offset="0" stop-color="#b9438f"/><stop offset="0.99" stop-color="#6769ff"/></linearGradient><linearGradient id="linear-gradient-3" x1="924.19" y1="402.14" x2="1088.15" y2="566.1" xlink:href="#linear-gradient-2"/><linearGradient id="linear-gradient-4" x1="1023.63" y1="114.93" x2="1198.4" y2="289.7" xlink:href="#linear-gradient-2"/><linearGradient id="linear-gradient-5" x1="876.15" y1="199.9" x2="1068.27" y2="392.02" xlink:href="#linear-gradient-2"/><linearGradient id="linear-gradient-6" x1="798.99" y1="277.35" x2="990.35" y2="468.71" xlink:href="#linear-gradient-2"/><linearGradient id="linear-gradient-7" x1="661.02" y1="585.18" x2="739.23" y2="663.39" xlink:href="#linear-gradient-2"/><linearGradient id="linear-gradient-8" x1="584.07" y1="519.63" x2="733.87" y2="669.44" xlink:href="#linear-gradient-2"/><linearGradient id="linear-gradient-9" x1="550.31" y1="695.02" x2="782.6" y2="927.3" xlink:href="#linear-gradient-2"/><linearGradient id="linear-gradient-10" x1="997.36" y1="460.35" x2="1129.45" y2="592.44" xlink:href="#linear-gradient-2"/><linearGradient id="linear-gradient-11" x1="1183.21" y1="274.44" x2="1316.63" y2="407.86" xlink:href="#linear-gradient-2"/><linearGradient id="linear-gradient-12" x1="1120.15" y1="532.08" x2="1339.81" y2="751.75" xlink:href="#linear-gradient-2"/><linearGradient id="linear-gradient-13" x1="793.9" y1="532.77" x2="957.45" y2="696.33" xlink:href="#linear-gradient-2"/><linearGradient id="linear-gradient-14" x1="943.02" y1="709.23" x2="1097.06" y2="863.27" xlink:href="#linear-gradient-2"/><linearGradient id="linear-gradient-15" x1="764.05" y1="312.4" x2="917.83" y2="466.18" xlink:href="#linear-gradient-2"/><linearGradient id="linear-gradient-16" x1="876.36" y1="199.98" x2="990.06" y2="313.68" xlink:href="#linear-gradient-2"/><linearGradient id="linear-gradient-17" x1="847.07" y1="227.9" x2="1001.65" y2="382.48" xlink:href="#linear-gradient-2"/><linearGradient id="linear-gradient-18" x1="1097.43" y1="203.74" x2="1176.38" y2="282.68" xlink:href="#linear-gradient-2"/><linearGradient id="linear-gradient-19" x1="726.95" y1="439.42" x2="866.41" y2="578.89" xlink:href="#linear-gradient-2"/><linearGradient id="linear-gradient-20" x1="632.64" y1="613.41" x2="755.49" y2="736.26" xlink:href="#linear-gradient-2"/><linearGradient id="linear-gradient-21" x1="844.22" y1="556.91" x2="970.92" y2="683.62" xlink:href="#linear-gradient-2"/><linearGradient id="linear-gradient-22" x1="911.66" y1="740.25" x2="1065.51" y2="894.1" xlink:href="#linear-gradient-2"/><linearGradient id="linear-gradient-23" x1="1298.22" y1="643.69" x2="1411.49" y2="756.97" xlink:href="#linear-gradient-2"/><linearGradient id="linear-gradient-24" x1="998.79" y1="383.77" x2="1170.35" y2="555.33" xlink:href="#linear-gradient-2"/><linearGradient id="linear-gradient-25" x1="1253.25" y1="467.84" x2="1365.5" y2="580.09" xlink:href="#linear-gradient-2"/><linearGradient id="linear-gradient-26" x1="1222.9" y1="263.72" x2="1451.95" y2="492.77" xlink:href="#linear-gradient-2"/><linearGradient id="linear-gradient-27" x1="517.34" y1="3.8" x2="795.54" y2="282" xlink:href="#linear-gradient-2"/><linearGradient id="linear-gradient-28" x1="885.59" y1="10.84" x2="974.86" y2="100.11" xlink:href="#linear-gradient-2"/><linearGradient id="linear-gradient-29" x1="716.09" y1="-31.72" x2="796.16" y2="48.35" xlink:href="#linear-gradient-2"/><linearGradient id="linear-gradient-30" x1="492.1" y1="1018.7" x2="538.84" y2="1065.44" gradientTransform="translate(685.09 -813.5) rotate(49.63)" xlink:href="#linear-gradient-2"/><linearGradient id="linear-gradient-31" x1="518.28" y1="131.24" x2="611.82" y2="224.78" xlink:href="#linear-gradient-2"/><linearGradient id="linear-gradient-32" x1="955.46" y1="-676.22" x2="1028.95" y2="-602.73" gradientTransform="translate(434.69 1262.72) rotate(-63.48)" xlink:href="#linear-gradient-2"/><linearGradient id="linear-gradient-33" x1="508.47" y1="294.55" x2="598.66" y2="384.73" xlink:href="#linear-gradient-2"/><linearGradient id="linear-gradient-34" x1="521.67" y1="451.51" x2="586.26" y2="516.09" xlink:href="#linear-gradient-2"/><linearGradient id="linear-gradient-35" x1="351.58" y1="296.58" x2="380.2" y2="325.2" xlink:href="#linear-gradient-2"/><linearGradient id="linear-gradient-36" x1="916.41" y1="1499.92" x2="945.03" y2="1528.53" gradientTransform="matrix(0.38, 0.92, -0.92, 0.38, 1257.9, -796)" xlink:href="#linear-gradient-2"/><linearGradient id="linear-gradient-37" x1="453.98" y1="1424.89" x2="482.59" y2="1453.5" gradientTransform="matrix(0.38, 0.92, -0.92, 0.38, 1257.9, -796)" xlink:href="#linear-gradient-2"/><linearGradient id="linear-gradient-38" x1="309.7" y1="609.66" x2="394.51" y2="694.47" xlink:href="#linear-gradient-2"/><linearGradient id="linear-gradient-39" x1="1370.8" y1="-676.38" x2="1480.84" y2="-566.34" gradientTransform="translate(1120.63 1749.1) rotate(-103.85)" xlink:href="#linear-gradient-2"/><linearGradient id="linear-gradient-40" x1="292.56" y1="410.53" x2="564.39" y2="682.36" xlink:href="#linear-gradient-2"/><linearGradient id="linear-gradient-41" x1="1142.06" y1="510.31" x2="1295.63" y2="663.88" xlink:href="#linear-gradient-2"/><linearGradient id="linear-gradient-42" x1="1218.47" y1="701.49" x2="1342.88" y2="825.9" xlink:href="#linear-gradient-2"/><linearGradient id="linear-gradient-43" x1="1160.94" y1="689.53" x2="1281.03" y2="809.61" xlink:href="#linear-gradient-2"/><linearGradient id="linear-gradient-44" x1="1320.18" y1="601.05" x2="1444.24" y2="725.1" xlink:href="#linear-gradient-2"/><linearGradient id="linear-gradient-45" x1="901.41" y1="132.81" x2="954.46" y2="185.86" xlink:href="#linear-gradient-2"/><linearGradient id="linear-gradient-46" x1="779.26" y1="622.16" x2="1031.78" y2="874.68" xlink:href="#linear-gradient-2"/><linearGradient id="linear-gradient-47" x1="695.7" y1="408.67" x2="779.54" y2="492.52" xlink:href="#linear-gradient-2"/><linearGradient id="linear-gradient-48" x1="695.55" y1="408.66" x2="807.49" y2="520.6" xlink:href="#linear-gradient-2"/><linearGradient id="linear-gradient-49" x1="999.09" y1="445.6" x2="1162.03" y2="608.54" xlink:href="#linear-gradient-2"/><linearGradient id="linear-gradient-50" x1="1017.99" y1="634.17" x2="1117.8" y2="733.98" xlink:href="#linear-gradient-2"/><linearGradient id="linear-gradient-51" x1="1120.62" y1="649.08" x2="1197.11" y2="725.56" xlink:href="#linear-gradient-2"/><linearGradient id="linear-gradient-52" x1="1141.24" y1="579.75" x2="1242.05" y2="680.56" xlink:href="#linear-gradient-2"/><linearGradient id="linear-gradient-53" x1="1044.53" y1="94.39" x2="1154.36" y2="204.21" xlink:href="#linear-gradient-2"/><linearGradient id="linear-gradient-54" x1="1158.45" y1="199.16" x2="1341.93" y2="382.63" xlink:href="#linear-gradient-2"/><linearGradient id="linear-gradient-55" x1="1038.42" y1="264.1" x2="1116.68" y2="342.36" xlink:href="#linear-gradient-2"/><linearGradient id="linear-gradient-56" x1="710.29" y1="691.28" x2="863.56" y2="844.55" xlink:href="#linear-gradient-2"/><linearGradient id="linear-gradient-57" x1="935.78" y1="716.85" x2="1035.22" y2="816.29" xlink:href="#linear-gradient-2"/><symbol id="New_Symbol_5" data-name="New Symbol 5" viewBox="0 0 1.85 1.85"><circle class="cls-2" cx="0.93" cy="0.93" r="0.93"/></symbol></defs><title>Artboard 1</title><g class="cls-3"><g id="Layer_1" data-name="Layer 1"><g class="cls-4"><rect class="cls-5" x="-17" y="-116" width="1401" height="934"/><g class="cls-6"><use width="1.85" height="1.85" transform="translate(742.58 428.85) scale(1.87 1.87)" xlink:href="#New_Symbol_5"/><use width="1.85" height="1.85" transform="translate(674.85 431.66) scale(1.87 1.87)" xlink:href="#New_Symbol_5"/><use width="1.85" height="1.85" transform="translate(585.8 461.78) scale(2.68 2.68)" xlink:href="#New_Symbol_5"/><use width="1.85" height="1.85" transform="translate(585.5 483.73) scale(2.95 2.95)" xlink:href="#New_Symbol_5"/><use width="1.85" height="1.85" transform="translate(642.17 504.51) scale(1.87 1.87)" xlink:href="#New_Symbol_5"/><use width="1.85" height="1.85" transform="translate(766.68 544.11) scale(1.87 1.87)" xlink:href="#New_Symbol_5"/><use width="1.85" height="1.85" transform="translate(846.84 598.69) scale(1.87 1.87)" xlink:href="#New_Symbol_5"/><use width="1.85" height="1.85" transform="translate(878.65 677.87) scale(1.87 1.87)" xlink:href="#New_Symbol_5"/><use width="1.85" height="1.85" transform="translate(754.76 712.38) scale(1.87 1.87)" xlink:href="#New_Symbol_5"/><use width="1.85" height="1.85" transform="translate(588.19 714.73) scale(1.87 1.87)" xlink:href="#New_Symbol_5"/><use width="1.85" height="1.85" transform="translate(574.19 720.46) scale(1.87 1.87)" xlink:href="#New_Symbol_5"/><use width="1.85" height="1.85" transform="translate(597.72 698.15) scale(1.87 1.87)" xlink:href="#New_Symbol_5"/><use width="1.85" height="1.85" transform="translate(715.72 588.85) scale(2.79 2.79)" xlink:href="#New_Symbol_5"/><use width="1.85" height="1.85" transform="translate(802.63 620.03) scale(1.87 1.87)" xlink:href="#New_Symbol_5"/><use width="1.85" height="1.85" transform="translate(964.3 616.9) scale(4.28 4.28)" xlink:href="#New_Symbol_5"/><use width="1.85" height="1.85" transform="translate(1126.31 601.11) scale(1.87 1.87)" xlink:href="#New_Symbol_5"/><use width="1.85" height="1.85" transform="translate(1249.8 466.7) scale(1.87 1.87)" xlink:href="#New_Symbol_5"/><use width="1.85" height="1.85" transform="translate(1194.72 434.09) scale(1.87 1.87)" xlink:href="#New_Symbol_5"/><use width="1.85" height="1.85" transform="translate(1195.28 373.91) scale(1.87 1.87)" xlink:href="#New_Symbol_5"/><use width="1.85" height="1.85" transform="translate(1109.51 386.57) scale(3.81 3.81)" xlink:href="#New_Symbol_5"/><use width="1.85" height="1.85" transform="translate(1107.89 401.14) scale(5.54 5.54)" xlink:href="#New_Symbol_5"/><use width="1.85" height="1.85" transform="translate(1050.49 400.52) scale(1.87 1.87)" xlink:href="#New_Symbol_5"/><use width="1.85" height="1.85" transform="translate(1005.28 321.58) scale(1.87 1.87)" xlink:href="#New_Symbol_5"/><use width="1.85" height="1.85" transform="translate(933 252.35) scale(1.87 1.87)" xlink:href="#New_Symbol_5"/><use width="1.85" height="1.85" transform="translate(853.73 225.04) scale(1.87 1.87)" xlink:href="#New_Symbol_5"/><use width="1.85" height="1.85" transform="translate(817.01 201.76) scale(1.87 1.87)" xlink:href="#New_Symbol_5"/><use width="1.85" height="1.85" transform="translate(578.97 276.88) scale(1.87 1.87)" xlink:href="#New_Symbol_5"/><use width="1.85" height="1.85" transform="translate(486.44 249.38) scale(1.87 1.87)" xlink:href="#New_Symbol_5"/><use width="1.85" height="1.85" transform="translate(619.52 121.34) scale(1.87 1.87)" xlink:href="#New_Symbol_5"/><use width="1.85" height="1.85" transform="translate(817.4 93.42) scale(1.87 1.87)" xlink:href="#New_Symbol_5"/><use width="1.85" height="1.85" transform="translate(913.82 82.52) scale(1.87 1.87)" xlink:href="#New_Symbol_5"/><use width="1.85" height="1.85" transform="translate(958.15 74.53) scale(1.87 1.87)" xlink:href="#New_Symbol_5"/><use width="1.85" height="1.85" transform="translate(1140.7 0.09) scale(1.87 1.87)" xlink:href="#New_Symbol_5"/><use width="1.85" height="1.85" transform="translate(1116.61 66.87) scale(1.87 1.87)" xlink:href="#New_Symbol_5"/><use width="1.85" height="1.85" transform="translate(939.56 151.25) scale(1.87 1.87)" xlink:href="#New_Symbol_5"/><use width="1.85" height="1.85" transform="translate(652.36 221.19) scale(1.87 1.87)" xlink:href="#New_Symbol_5"/><use width="1.85" height="1.85" transform="translate(675.51 287.3) scale(1.87 1.87)" xlink:href="#New_Symbol_5"/><use width="1.85" height="1.85" transform="translate(623.66 326.04) scale(4.61 4.61)" xlink:href="#New_Symbol_5"/><use width="1.85" height="1.85" transform="translate(487.5 374.91) scale(1.87 1.87)" xlink:href="#New_Symbol_5"/><use width="1.85" height="1.85" transform="translate(334.11 389.19) scale(1.87 1.87)" xlink:href="#New_Symbol_5"/><use width="1.85" height="1.85" transform="translate(265.59 464.99) scale(3.19 3.19)" xlink:href="#New_Symbol_5"/><use width="1.85" height="1.85" transform="translate(262.28 494.89) scale(3.62 3.62)" xlink:href="#New_Symbol_5"/><use width="1.85" height="1.85" transform="translate(216.64 544.48) scale(1.87 1.87)" xlink:href="#New_Symbol_5"/><use width="1.85" height="1.85" transform="translate(184.1 627.49) scale(1.87 1.87)" xlink:href="#New_Symbol_5"/><use width="1.85" height="1.85" transform="translate(202.83 598.48) scale(1.87 1.87)" xlink:href="#New_Symbol_5"/><use width="1.85" height="1.85" transform="translate(192.65 613.21) scale(1.87 1.87)" xlink:href="#New_Symbol_5"/><use width="1.85" height="1.85" transform="translate(235.58 619.78) scale(1.87 1.87)" xlink:href="#New_Symbol_5"/><use width="1.85" height="1.85" transform="translate(218.27 578.73) scale(1.87 1.87)" xlink:href="#New_Symbol_5"/><use width="1.85" height="1.85" transform="translate(206.78 571.67) scale(1.87 1.87)" xlink:href="#New_Symbol_5"/><use width="1.85" height="1.85" transform="translate(388.03 719.85) scale(1.87 1.87)" xlink:href="#New_Symbol_5"/><use width="1.85" height="1.85" transform="translate(453.12 748.08) scale(2.84 2.84)" xlink:href="#New_Symbol_5"/><use width="1.85" height="1.85" transform="translate(486.4 762.4) scale(2.37 2.37)" xlink:href="#New_Symbol_5"/><use width="1.85" height="1.85" transform="translate(478.14 687) scale(5.16 5.16)" xlink:href="#New_Symbol_5"/><use width="1.85" height="1.85" transform="translate(470.23 647.45) scale(1.87 1.87)" xlink:href="#New_Symbol_5"/><use width="1.85" height="1.85" transform="translate(512.95 669.99) scale(3.49 3.49)" xlink:href="#New_Symbol_5"/><use width="1.85" height="1.85" transform="translate(624.18 741.91) scale(1.87 1.87)" xlink:href="#New_Symbol_5"/><use width="1.85" height="1.85" transform="translate(445.65 758.49) scale(1.87 1.87)" xlink:href="#New_Symbol_5"/><use width="1.85" height="1.85" transform="translate(318.38 765.18) scale(1.87 1.87)" xlink:href="#New_Symbol_5"/><use width="1.85" height="1.85" transform="translate(550.62 762.85) scale(1.87 1.87)" xlink:href="#New_Symbol_5"/><use width="1.85" height="1.85" transform="translate(615.32 753.42) scale(1.87 1.87)" xlink:href="#New_Symbol_5"/><use width="1.85" height="1.85" transform="translate(793.04 734.11) scale(1.87 1.87)" xlink:href="#New_Symbol_5"/><use width="1.85" height="1.85" transform="translate(790.76 763.54) scale(1.87 1.87)" xlink:href="#New_Symbol_5"/><use width="1.85" height="1.85" transform="translate(761.59 728.71) scale(1.87 1.87)" xlink:href="#New_Symbol_5"/><use width="1.85" height="1.85" transform="translate(765.73 750.93) scale(1.87 1.87)" xlink:href="#New_Symbol_5"/><use width="1.85" height="1.85" transform="translate(837.97 753.94) scale(1.87 1.87)" xlink:href="#New_Symbol_5"/><use width="1.85" height="1.85" transform="translate(1089.65 727.54) scale(1.87 1.87)" xlink:href="#New_Symbol_5"/><use width="1.85" height="1.85" transform="translate(941.96 455.55) scale(1.87 1.87)" xlink:href="#New_Symbol_5"/><use width="1.85" height="1.85" transform="translate(901.12 497.56) scale(1.87 1.87)" xlink:href="#New_Symbol_5"/><use width="1.85" height="1.85" transform="translate(885.63 390.4) scale(1.87 1.87)" xlink:href="#New_Symbol_5"/><use width="1.85" height="1.85" transform="translate(892.51 365.35) scale(1.87 1.87)" xlink:href="#New_Symbol_5"/><use width="1.85" height="1.85" transform="translate(857.22 359.59) scale(1.87 1.87)" xlink:href="#New_Symbol_5"/><use width="1.85" height="1.85" transform="translate(1047.07 172.12) scale(6.24 6.24)" xlink:href="#New_Symbol_5"/><use width="1.85" height="1.85" transform="translate(1045.11 131.18) scale(2.14 2.14)" xlink:href="#New_Symbol_5"/><use width="1.85" height="1.85" transform="translate(1065.76 134.35) scale(1.97 1.97)" xlink:href="#New_Symbol_5"/><use width="1.85" height="1.85" transform="translate(1111.95 118.38) scale(2.24 2.24)" xlink:href="#New_Symbol_5"/><use width="1.85" height="1.85" transform="translate(1109.16 106.39) scale(1.87 1.87)" xlink:href="#New_Symbol_5"/><use width="1.85" height="1.85" transform="translate(1094.52 99.37) scale(1.87 1.87)" xlink:href="#New_Symbol_5"/><use width="1.85" height="1.85" transform="translate(1092.95 107.82) scale(1.87 1.87)" xlink:href="#New_Symbol_5"/><use width="1.85" height="1.85" transform="translate(1121.39 211.46) scale(1.87 1.87)" xlink:href="#New_Symbol_5"/><use width="1.85" height="1.85" transform="translate(1155.6 264.93) scale(1.87 1.87)" xlink:href="#New_Symbol_5"/><use width="1.85" height="1.85" transform="translate(1255.8 260.1) scale(1.87 1.87)" xlink:href="#New_Symbol_5"/><use width="1.85" height="1.85" transform="translate(622.6 146.1) scale(1.87 1.87)" xlink:href="#New_Symbol_5"/><use width="1.85" height="1.85" transform="translate(482.45 76.96) scale(5.4 5.4)" xlink:href="#New_Symbol_5"/><use width="1.85" height="1.85" transform="translate(444.57 49.4) scale(2.85 2.85)" xlink:href="#New_Symbol_5"/><use width="1.85" height="1.85" transform="translate(389.37 67.13) scale(1.87 1.87)" xlink:href="#New_Symbol_5"/><use width="1.85" height="1.85" transform="translate(364.17 21.34) scale(1.87 1.87)" xlink:href="#New_Symbol_5"/><use width="1.85" height="1.85" transform="translate(319.03 -1.37) scale(1.87 1.87)" xlink:href="#New_Symbol_5"/><use width="1.85" height="1.85" transform="translate(378.09 160.88) scale(1.87 1.87)" xlink:href="#New_Symbol_5"/><use width="1.85" height="1.85" transform="translate(342.55 133.13) scale(1.87 1.87)" xlink:href="#New_Symbol_5"/><use width="1.85" height="1.85" transform="translate(264.93 87.38) scale(1.87 1.87)" xlink:href="#New_Symbol_5"/><use width="1.85" height="1.85" transform="translate(286.46 120.06) scale(1.87 1.87)" xlink:href="#New_Symbol_5"/><use width="1.85" height="1.85" transform="translate(322.82 197.03) scale(1.87 1.87)" xlink:href="#New_Symbol_5"/><use width="1.85" height="1.85" transform="translate(197.22 228.89) scale(1.87 1.87)" xlink:href="#New_Symbol_5"/></g><g class="cls-6"><use width="1.85" height="1.85" transform="translate(150.18 130.88) scale(1.87 1.87)" xlink:href="#New_Symbol_5"/><use width="1.85" height="1.85" transform="translate(80.99 9.46) scale(1.87 1.87)" xlink:href="#New_Symbol_5"/><use width="1.85" height="1.85" transform="translate(113.22 0.34) scale(1.87 1.87)" xlink:href="#New_Symbol_5"/><use width="1.85" height="1.85" transform="translate(6.32 55.85) scale(1.87 1.87)" xlink:href="#New_Symbol_5"/><use width="1.85" height="1.85" transform="translate(13.88 81.74) scale(1.87 1.87)" xlink:href="#New_Symbol_5"/><use width="1.85" height="1.85" transform="translate(119.52 55.44) scale(1.87 1.87)" xlink:href="#New_Symbol_5"/><use width="1.85" height="1.85" transform="translate(183.39 12.19) scale(1.87 1.87)" xlink:href="#New_Symbol_5"/><use width="1.85" height="1.85" transform="translate(15.88 217.66) scale(1.87 1.87)" xlink:href="#New_Symbol_5"/><use width="1.85" height="1.85" transform="translate(4.32 263.22) scale(1.87 1.87)" xlink:href="#New_Symbol_5"/><use width="1.85" height="1.85" transform="translate(20.02 306.67) scale(1.87 1.87)" xlink:href="#New_Symbol_5"/><use width="1.85" height="1.85" transform="translate(76.26 364.78) scale(1.87 1.87)" xlink:href="#New_Symbol_5"/><use width="1.85" height="1.85" transform="translate(88.84 349.41) scale(1.87 1.87)" xlink:href="#New_Symbol_5"/><use width="1.85" height="1.85" transform="translate(145.69 349.29) scale(1.87 1.87)" xlink:href="#New_Symbol_5"/><use width="1.85" height="1.85" transform="translate(153.7 330.06) scale(1.87 1.87)" xlink:href="#New_Symbol_5"/><use width="1.85" height="1.85" transform="translate(120.68 285.78) scale(1.87 1.87)" xlink:href="#New_Symbol_5"/><use width="1.85" height="1.85" transform="translate(151.21 294.34) scale(1.87 1.87)" xlink:href="#New_Symbol_5"/><use width="1.85" height="1.85" transform="translate(194.09 310.23) scale(1.87 1.87)" xlink:href="#New_Symbol_5"/><use width="1.85" height="1.85" transform="translate(210.15 334.33) scale(1.87 1.87)" xlink:href="#New_Symbol_5"/><use width="1.85" height="1.85" transform="translate(154.58 366.85) scale(1.87 1.87)" xlink:href="#New_Symbol_5"/><use width="1.85" height="1.85" transform="translate(43.36 480.38) scale(1.87 1.87)" xlink:href="#New_Symbol_5"/><use width="1.85" height="1.85" transform="translate(109.17 419.78) scale(1.87 1.87)" xlink:href="#New_Symbol_5"/><use width="1.85" height="1.85" transform="translate(112.34 436.15) scale(1.87 1.87)" xlink:href="#New_Symbol_5"/><use width="1.85" height="1.85" transform="translate(45.76 506.21) scale(1.87 1.87)" xlink:href="#New_Symbol_5"/><use width="1.85" height="1.85" transform="translate(12.29 622.17) scale(1.87 1.87)" xlink:href="#New_Symbol_5"/><use width="1.85" height="1.85" transform="translate(41.15 682.95) scale(1.87 1.87)" xlink:href="#New_Symbol_5"/><use width="1.85" height="1.85" transform="translate(139.81 692.4) scale(1.87 1.87)" xlink:href="#New_Symbol_5"/><use width="1.85" height="1.85" transform="translate(136.14 564.3) scale(1.87 1.87)" xlink:href="#New_Symbol_5"/><use width="1.85" height="1.85" transform="translate(178.27 630.62) scale(1.87 1.87)" xlink:href="#New_Symbol_5"/><use width="1.85" height="1.85" transform="translate(169.75 674.61) scale(1.87 1.87)" xlink:href="#New_Symbol_5"/><use width="1.85" height="1.85" transform="translate(180.26 748.68) scale(1.87 1.87)" xlink:href="#New_Symbol_5"/><use width="1.85" height="1.85" transform="translate(98.24 631.01) scale(1.87 1.87)" xlink:href="#New_Symbol_5"/><use width="1.85" height="1.85" transform="translate(224.95 105.47) scale(1.87 1.87)" xlink:href="#New_Symbol_5"/><use width="1.85" height="1.85" transform="translate(233.86 135.91) scale(1.87 1.87)" xlink:href="#New_Symbol_5"/><use width="1.85" height="1.85" transform="translate(236.72 150.54) scale(1.87 1.87)" xlink:href="#New_Symbol_5"/><use width="1.85" height="1.85" transform="translate(90.41 124.44) scale(1.87 1.87)" xlink:href="#New_Symbol_5"/><use width="1.85" height="1.85" transform="translate(1278.81 12.2) scale(1.87 1.87)" xlink:href="#New_Symbol_5"/><use width="1.85" height="1.85" transform="translate(1348.16 91.13) scale(1.87 1.87)" xlink:href="#New_Symbol_5"/><use width="1.85" height="1.85" transform="translate(1350.74 117.39) scale(1.87 1.87)" xlink:href="#New_Symbol_5"/><use width="1.85" height="1.85" transform="translate(1232.73 58.64) scale(1.87 1.87)" xlink:href="#New_Symbol_5"/><use width="1.85" height="1.85" transform="translate(1171.24 18.6) scale(1.87 1.87)" xlink:href="#New_Symbol_5"/><use width="1.85" height="1.85" transform="translate(1200.52 5.8) scale(1.87 1.87)" xlink:href="#New_Symbol_5"/><use width="1.85" height="1.85" transform="translate(1350.43 132.5) scale(1.87 1.87)" xlink:href="#New_Symbol_5"/><use width="1.85" height="1.85" transform="translate(1361.62 211.47) scale(1.87 1.87)" xlink:href="#New_Symbol_5"/><use width="1.85" height="1.85" transform="translate(823.98 4.69) scale(1.87 1.87)" xlink:href="#New_Symbol_5"/><use width="1.85" height="1.85" transform="translate(965.08 28.3) scale(1.87 1.87)" xlink:href="#New_Symbol_5"/><use width="1.85" height="1.85" transform="translate(271.39 359.73) scale(1.87 1.87)" xlink:href="#New_Symbol_5"/><use width="1.85" height="1.85" transform="translate(1251.48 101.35) scale(1.87 1.87)" xlink:href="#New_Symbol_5"/><use width="1.85" height="1.85" transform="translate(1339.43 184.63) scale(1.87 1.87)" xlink:href="#New_Symbol_5"/><use width="1.85" height="1.85" transform="translate(1347.19 278.24) scale(1.87 1.87)" xlink:href="#New_Symbol_5"/><use width="1.85" height="1.85" transform="translate(65.84 742.83) scale(1.87 1.87)" xlink:href="#New_Symbol_5"/></g><circle class="cls-7" cx="916.55" cy="733.05" r="1114.35"/><g class="cls-8"><polygon class="cls-9" points="936.25 509.4 751.94 519.47 766.43 401.42 936.25 509.4"/><polygon class="cls-10" points="1080.11 378.24 1012.88 640.19 834.39 492.99 1080.11 378.24"/><path class="cls-11" d="M1193.7,108.18c-3.48,0-216.75,54.48-216.75,54.48l103.16,215.59L1301.5,185.84Z"/><polygon class="cls-12" points="807.76 269.29 976.95 162.65 1080.11 378.24 807.76 269.29"/><polygon class="cls-13" points="834.39 492.99 1080.11 378.24 807.76 269.29 834.39 492.99"/><polygon class="cls-14" points="583.28 663.38 751.94 519.47 775.84 626.28 583.28 663.38"/><polygon class="cls-15" points="657.18 447.79 583.28 663.38 775.84 626.28 657.18 447.79"/><path class="cls-16" d="M886.55,820.8c-5.8,0-304,121.91-303.26,118.43s0-275.86,0-275.86Z"/><polygon class="cls-17" points="1200.65 520.81 1080.11 378.24 1012.88 640.19 1200.65 520.81"/><polygon class="cls-18" points="1301.49 185.84 1080.11 378.24 1263.25 460.54 1301.49 185.84"/><polygon class="cls-19" points="1012.88 640.19 1252.81 837.24 1263.25 460.54 1012.88 640.19"/><polygon class="cls-20" points="775.84 626.28 1012.88 640.19 834.39 492.99 775.84 626.28"/><polygon class="cls-21" points="1180.75 778.05 886.54 820.8 1012.88 640.19 1180.75 778.05"/><polygon class="cls-22" points="807.76 269.29 766.43 401.42 957.25 425.76 807.76 269.29"/><polygon class="cls-23" points="976.95 162.65 1004.77 298.27 807.76 269.29 976.95 162.65"/><polygon class="cls-24" points="957.25 425.76 1004.77 298.27 807.76 269.29 957.25 425.76"/><polygon class="cls-25" points="1193.7 108.18 1004.77 298.27 1080.11 378.24 1193.7 108.18"/><polygon class="cls-26" points="775.84 626.28 935.23 509.22 766.43 401.42 775.84 626.28"/><polygon class="cls-27" points="689.88 801.34 775.84 626.28 583.28 663.38 689.88 801.34"/><polygon class="cls-28" points="935.23 509.22 1012.88 640.19 775.84 626.28 935.23 509.22"/><polygon class="cls-29" points="1012.88 640.19 923.64 982.12 1180.75 778.05 1012.88 640.19"/><path class="cls-30" d="M1417.4,526.6s-56.79,284-60.27,284-104.32,26.66-104.32,26.66Z"/><polygon class="cls-31" points="935.23 509.22 1263.25 460.54 957.25 425.76 935.23 509.22"/><polygon class="cls-32" points="1417.4 526.6 1263.25 460.54 1200.65 520.81 1417.4 526.6"/><polygon class="cls-33" points="1301.49 185.84 1417.4 526.6 1263.25 460.54 1301.49 185.84"/><polyline class="cls-34" points="461.16 60.66 611.17 -14.69 691.27 168.45 689.45 269.29 807.76 269.29"/><polygon class="cls-35" points="923.64 -26.28 861.84 173.09 1067.94 6.18 923.64 -26.28"/><polygon class="cls-36" points="699.93 -14.69 806.35 -62.21 734.91 108.18 699.93 -14.69"/><polygon class="cls-37" points="214.06 220.77 274.79 249.82 173.08 282.13 214.06 220.77"/><polygon class="cls-38" points="472.75 177.72 576.88 96.59 657.18 177.72 472.75 177.72"/><polygon class="cls-39" points="269.99 144.76 257.43 61.15 340.3 33.93 269.99 144.76"/><polygon class="cls-40" points="456.53 347.53 565.62 264.65 650.97 330.72 456.53 347.53"/><polygon class="cls-41" points="545.43 555.58 524.75 449.53 598.69 447.79 545.43 555.58"/><polygon class="cls-42" points="363.8 285.52 353.37 330.72 396.25 308.12 363.8 285.52"/><polygon class="cls-43" points="240.26 633.48 194.52 641.22 231.87 672.13 240.26 633.48"/><polygon class="cls-44" points="131.82 177.72 86.08 185.46 123.42 216.37 131.82 177.72"/><polygon class="cls-45" points="307.01 701.6 358 562.54 431.03 656.9 307.01 701.6"/><polygon class="cls-46" points="251.39 566.59 57.09 531.63 169.31 419.45 251.39 566.59"/><polyline class="cls-47" points="583.28 663.38 493.62 548.63 480.87 679.02 396.25 432.72 322.07 381.14"/><polygon class="cls-48" points="1012.88 640.19 1417.4 526.6 1180.75 778.05 1012.88 640.19"/><polygon class="cls-49" points="1357.13 810.58 1270.14 651.84 1252.81 837.24 1357.13 810.58"/><polygon class="cls-50" points="1270.14 651.84 1087.65 763.32 1252.81 837.24 1270.14 651.84"/><polygon class="cls-51" points="1417.4 526.6 1270.14 651.84 1357.13 810.58 1417.4 526.6"/><polygon class="cls-52" points="861.84 173.09 976.95 162.65 964.89 116.44 861.84 173.09"/><polygon class="cls-53" points="775.84 626.28 1012.88 640.19 923.64 982.12 775.84 626.28"/><polygon class="cls-54" points="656.85 448.07 751.94 519.47 766.43 401.42 656.85 448.07"/><polygon class="cls-55" points="656.85 448.07 834.39 492.99 766.43 401.42 656.85 448.07"/><polygon class="cls-56" points="936.25 509.4 1200.65 520.81 1106.77 663.38 936.25 509.4"/><polygon class="cls-57" points="1087.65 763.32 1106.77 663.38 1012.88 640.19 1087.65 763.32"/><polygon class="cls-58" points="1270.14 651.84 1106.77 663.38 1087.65 763.32 1270.14 651.84"/><polygon class="cls-59" points="1200.65 520.81 1270.14 651.84 1106.77 663.38 1200.65 520.81"/><polygon class="cls-60" points="976.95 162.65 1102.27 255.88 1193.7 108.18 976.95 162.65"/><polygon class="cls-61" points="1301.49 185.84 1102.27 255.88 1263.25 460.54 1301.49 185.84"/><polygon class="cls-62" points="1004.77 298.27 1102.27 255.88 1080.11 378.24 1004.77 298.27"/><polygon class="cls-63" points="775.84 626.28 689.88 801.34 886.54 820.8 775.84 626.28"/><polygon class="cls-64" points="1087.65 763.32 886.54 820.8 1012.88 640.19 1087.65 763.32"/></g><circle class="cls-2" cx="976.3" cy="162.63" r="5.73"/><circle class="cls-2" cx="808.03" cy="269.91" r="6.93"/><circle class="cls-2" cx="656.85" cy="448.07" r="6.81"/><circle class="cls-2" cx="776.67" cy="626.2" r="8.86"/><circle class="cls-2" cx="936.25" cy="509.4" r="4.5"/><circle class="cls-2" cx="1200.66" cy="520.81" r="4.5"/><circle class="cls-2" cx="751.94" cy="519.47" r="4.5"/><circle class="cls-2" cx="766.43" cy="401.42" r="4.5"/><circle class="cls-65" cx="494.64" cy="551.08" r="4.5"/><circle class="cls-65" cx="307.01" cy="702.77" r="4.5"/><circle class="cls-65" cx="396.25" cy="434.67" r="4.5"/><circle class="cls-65" cx="481.52" cy="679.31" r="4.5"/><circle class="cls-2" cx="691.27" cy="269.91" r="4.5"/><circle class="cls-2" cx="524.75" cy="451.68" r="4.5"/><circle class="cls-65" cx="456.53" cy="347.53" r="4.5"/><circle class="cls-65" cx="691.27" cy="168.37" r="4.5"/><circle class="cls-65" cx="1067.94" cy="5.79" r="4.5"/><circle class="cls-2" cx="956.47" cy="425.67" r="4.5"/><circle class="cls-2" cx="1102.27" cy="255.87" r="4.5"/><circle class="cls-2" cx="1106.77" cy="663.38" r="4.5"/><circle class="cls-2" cx="1088.19" cy="763.32" r="4.5"/><circle class="cls-2" cx="1270.14" cy="651.84" r="4.5"/><circle class="cls-2" cx="1079.33" cy="379.5" r="8.86"/><circle class="cls-2" cx="834.39" cy="492.99" r="8.86"/><circle class="cls-2" cx="1263.25" cy="460.54" r="8.86"/><circle class="cls-2" cx="1012.88" cy="640.19" r="8.86"/><circle class="cls-2" cx="1003.45" cy="298.83" r="8.86"/><circle class="cls-2" cx="584.16" cy="663.74" r="6.81"/><circle class="cls-2" cx="1301.12" cy="185.31" r="5.63"/><circle class="cls-2" cx="1193.7" cy="108.18" r="5.63"/></g></g></g></svg>